<svg width="226" height="131" viewBox="0 0 226 131" fill="none" xmlns="http://www.w3.org/2000/svg">
<g style="mix-blend-mode:multiply" opacity="0.3">
<g style="mix-blend-mode:multiply">
<g style="mix-blend-mode:multiply">
<path d="M225.4 0H0V130.14H225.4V0Z" fill="white"/>
</g>
<g style="mix-blend-mode:multiply">
<path d="M113.152 116.885C165.675 116.359 208.022 92.8449 207.737 64.3636C207.452 35.8823 164.643 13.2194 112.121 13.7446C59.5988 14.2698 17.252 37.7843 17.5368 66.2656C17.8216 94.7469 60.6302 117.41 113.152 116.885Z" fill="white"/>
</g>
<g style="mix-blend-mode:multiply">
<path d="M113.232 116.29C165.403 115.744 207.457 92.37 207.16 64.0835C206.864 35.797 164.331 13.3092 112.159 13.8556C59.9877 14.4019 17.9345 37.7756 18.2307 66.062C18.527 94.3485 61.0604 116.836 113.232 116.29Z" fill="white"/>
</g>
<g style="mix-blend-mode:multiply">
<path d="M113.228 115.95C165.052 115.407 206.825 92.1888 206.53 64.0901C206.236 35.9914 163.986 13.6528 112.163 14.1956C60.3392 14.7383 18.5665 37.9567 18.8607 66.0554C19.155 94.1541 61.4048 116.493 113.228 115.95Z" fill="white"/>
</g>
<g style="mix-blend-mode:multiply">
<path d="M113.225 115.61C164.695 115.071 206.183 92.0077 205.89 64.0968C205.598 36.1858 163.636 13.9965 112.166 14.5355C60.6962 15.0745 19.2084 38.1378 19.5006 66.0487C19.7929 93.9596 61.7547 116.149 113.225 115.61Z" fill="white"/>
</g>
<g style="mix-blend-mode:multiply">
<path d="M113.221 115.26C164.343 114.725 205.551 91.821 205.26 64.1033C204.97 36.3857 163.292 14.3501 112.17 14.8855C61.0478 15.4209 19.8404 38.3244 20.1306 66.0421C20.4209 93.7597 62.0989 115.795 113.221 115.26Z" fill="white"/>
</g>
<g style="mix-blend-mode:multiply">
<path d="M113.218 114.92C163.986 114.388 204.909 91.6399 204.62 64.11C204.332 36.5801 162.942 14.6938 112.174 15.2254C61.4048 15.7571 20.4823 38.5055 20.7706 66.0354C21.0589 93.5653 62.4488 115.452 113.218 114.92Z" fill="white"/>
</g>
<g style="mix-blend-mode:multiply">
<path d="M113.214 114.57C163.635 114.042 204.277 91.4532 203.991 64.1166C203.704 36.78 162.598 15.0474 112.177 15.5754C61.7564 16.1034 21.1143 38.6922 21.4006 66.0288C21.6868 93.3654 62.7931 115.098 113.214 114.57Z" fill="white"/>
</g>
<g style="mix-blend-mode:multiply">
<path d="M113.21 114.23C163.283 113.706 203.645 91.2721 203.361 64.1233C203.076 36.9744 162.254 15.3911 112.181 15.9155C62.1078 16.4398 21.7462 38.8734 22.0305 66.0222C22.3148 93.171 63.1374 114.754 113.21 114.23Z" fill="white"/>
</g>
<g style="mix-blend-mode:multiply">
<path d="M113.207 113.89C162.926 113.369 203.003 91.091 202.721 64.1299C202.438 37.1689 161.904 15.7347 112.184 16.2554C62.4649 16.7761 22.3882 39.0544 22.6705 66.0155C22.9528 92.9766 63.4873 114.411 113.207 113.89Z" fill="white"/>
</g>
<g style="mix-blend-mode:multiply">
<path d="M113.121 113.785C162.496 113.291 202.304 91.1898 202.037 64.4206C201.769 37.6513 161.526 16.3508 112.152 16.8446C62.7778 17.3383 22.9691 39.4393 23.2368 66.2086C23.5045 92.9778 63.7472 114.278 113.121 113.785Z" fill="white"/>
</g>
<g style="mix-blend-mode:multiply">
<path d="M113.2 113.2C162.218 112.687 201.729 90.7233 201.451 64.1433C201.172 37.5633 161.21 16.4321 112.192 16.9454C63.1734 17.4587 23.6621 39.4222 23.9404 66.0022C24.2188 92.5822 64.1815 113.713 113.2 113.2Z" fill="white"/>
</g>
<g style="mix-blend-mode:multiply">
<path d="M113.196 112.86C161.866 112.35 201.097 90.5421 200.821 64.1499C200.544 37.7576 160.865 16.7757 112.195 17.2854C63.5249 17.7951 24.294 39.6034 24.5704 65.9956C24.8468 92.3879 64.5258 113.37 113.196 112.86Z" fill="#FEFFFF"/>
</g>
<g style="mix-blend-mode:multiply">
<path d="M113.192 112.51C161.515 112.004 200.465 90.3554 200.191 64.1565C199.916 37.9575 160.521 17.1293 112.199 17.6354C63.8765 18.1414 24.926 39.7901 25.2004 65.989C25.4747 92.188 64.8701 113.016 113.192 112.51Z" fill="#FEFFFF"/>
</g>
<g style="mix-blend-mode:multiply">
<path d="M113.189 112.17C161.158 111.668 199.823 90.1743 199.551 64.1631C199.278 38.152 160.171 17.473 112.202 17.9753C64.2335 18.4777 25.5679 39.9711 25.8403 65.9823C26.1127 91.9935 65.2199 112.672 113.189 112.17Z" fill="#FEFEFF"/>
</g>
<g style="mix-blend-mode:multiply">
<path d="M113.185 111.82C160.806 111.321 199.191 89.9876 198.921 64.1697C198.65 38.3518 159.827 17.8266 112.206 18.3253C64.5851 18.824 26.1999 40.1578 26.4703 65.9757C26.7406 91.7936 65.5642 112.319 113.185 111.82Z" fill="#FEFEFF"/>
</g>
<g style="mix-blend-mode:multiply">
<path d="M113.182 111.48C160.449 110.985 198.549 89.8066 198.281 64.1765C198.012 38.5463 159.477 18.1703 112.21 18.6653C64.9421 19.1603 26.8419 40.3389 27.1103 65.969C27.3787 91.5992 65.9141 111.975 113.182 111.48Z" fill="#FEFEFF"/>
</g>
<g style="mix-blend-mode:multiply">
<path d="M113.178 111.14C160.098 110.649 197.917 89.6254 197.651 64.1831C197.384 38.7407 159.133 18.5139 112.213 19.0053C65.2936 19.4966 27.4738 40.5201 27.7402 65.9624C28.0067 91.4048 66.2585 111.632 113.178 111.14Z" fill="#FEFEFF"/>
</g>
<g style="mix-blend-mode:multiply">
<path d="M113.174 110.79C159.74 110.303 197.275 89.4388 197.011 64.1897C196.746 38.9407 158.783 18.8676 112.217 19.3552C65.6507 19.8429 28.1158 40.7066 28.3802 65.9557C28.6446 91.2048 66.6082 111.278 113.174 110.79Z" fill="#FEFEFF"/>
</g>
<g style="mix-blend-mode:multiply">
<path d="M113.171 110.45C159.389 109.966 196.643 89.2576 196.381 64.1963C196.118 39.135 158.439 19.2112 112.22 19.6952C66.0022 20.1792 28.7477 40.8878 29.0102 65.9491C29.2726 91.0104 66.9526 110.934 113.171 110.45Z" fill="#FDFEFE"/>
</g>
<g style="mix-blend-mode:multiply">
<path d="M113.167 110.11C159.037 109.63 196.011 89.0765 195.751 64.203C195.491 39.3294 158.094 19.5549 112.224 20.0352C66.3537 20.5156 29.3797 41.069 29.6401 65.9426C29.9006 90.8161 67.297 110.591 113.167 110.11Z" fill="#FDFEFE"/>
</g>
<g style="mix-blend-mode:multiply">
<path d="M113.164 109.76C158.68 109.284 195.37 88.8899 195.111 64.2097C194.853 39.5294 157.744 19.9085 112.228 20.3852C66.7108 20.8619 30.0216 41.2556 30.2801 65.9358C30.5385 90.6161 67.6467 110.237 113.164 109.76Z" fill="#FDFEFE"/>
</g>
<g style="mix-blend-mode:multiply">
<path d="M113.16 109.42C158.329 108.947 194.738 88.7087 194.481 64.2162C194.225 39.7238 157.4 20.2522 112.231 20.7252C67.0622 21.1982 30.6535 41.4367 30.91 65.9292C31.1665 90.4217 67.9911 109.893 113.16 109.42Z" fill="#FDFDFE"/>
</g>
<g style="mix-blend-mode:multiply">
<path d="M113.156 109.07C157.972 108.601 194.096 88.5221 193.841 64.2229C193.587 39.9237 157.05 20.6058 112.235 21.0751C67.4194 21.5445 31.2956 41.6233 31.55 65.9225C31.8045 90.2217 68.3409 109.54 113.156 109.07Z" fill="#FCFDFE"/>
</g>
<g style="mix-blend-mode:multiply">
<path d="M113.153 108.73C157.62 108.265 193.464 88.341 193.211 64.2295C192.959 40.1181 156.706 20.9494 112.238 21.4151C67.7709 21.8808 31.9275 41.8045 32.18 65.9159C32.4325 90.0273 68.6853 109.196 113.153 108.73Z" fill="#FCFDFE"/>
</g>
<g style="mix-blend-mode:multiply">
<path d="M113.149 108.39C157.269 107.928 192.832 88.1598 192.581 64.2361C192.331 40.3124 156.362 21.293 112.242 21.7551C68.1223 22.2171 32.5594 41.9856 32.8099 65.9093C33.0605 89.833 69.0296 108.852 113.149 108.39Z" fill="#FCFDFE"/>
</g>
<g style="mix-blend-mode:multiply">
<path d="M113.146 108.04C156.912 107.582 192.19 87.9732 191.941 64.2428C191.693 40.5125 156.012 21.6468 112.246 22.1051C68.4794 22.5634 33.2014 42.1723 33.4499 65.9026C33.6984 89.633 69.3794 108.499 113.146 108.04Z" fill="#FCFDFE"/>
</g>
<g style="mix-blend-mode:multiply">
<path d="M113.063 107.945C156.484 107.51 191.492 88.0723 191.257 64.5284C191.021 40.9845 155.631 22.2504 112.211 22.6846C68.7899 23.1188 33.7814 42.5569 34.0168 66.1008C34.2523 89.6447 69.6425 108.379 113.063 107.945Z" fill="#FBFDFE"/>
</g>
<g style="mix-blend-mode:multiply">
<path d="M113.138 107.36C156.203 106.909 190.916 87.611 190.671 64.2561C190.427 40.9013 155.318 22.334 112.253 22.785C69.1879 23.236 34.4752 42.5345 34.7198 65.8893C34.9644 89.2441 70.0736 107.811 113.138 107.36Z" fill="#FBFCFE"/>
</g>
<g style="mix-blend-mode:multiply">
<path d="M113.135 107.01C155.852 106.563 190.284 87.4243 190.041 64.2628C189.799 41.1012 154.973 22.6877 112.256 23.1351C69.5395 23.5824 35.1072 42.7212 35.3498 65.8828C35.5924 89.0443 70.4179 107.458 113.135 107.01Z" fill="#FBFCFE"/>
</g>
<g style="mix-blend-mode:multiply">
<path d="M113.131 106.67C155.5 106.227 189.652 87.2431 189.411 64.2694C189.171 41.2956 154.629 23.0313 112.26 23.475C69.891 23.9188 35.7392 42.9024 35.9798 65.8762C36.2204 88.8499 70.7622 107.114 113.131 106.67Z" fill="#FAFCFE"/>
</g>
<g style="mix-blend-mode:multiply">
<path d="M113.128 106.32C155.143 105.88 189.01 87.0566 188.771 64.2761C188.533 41.4956 154.279 23.385 112.264 23.825C70.2481 24.265 36.3811 43.0889 36.6197 65.8694C36.8583 88.6499 71.112 106.76 113.128 106.32Z" fill="#FAFCFD"/>
</g>
<g style="mix-blend-mode:multiply">
<path d="M113.124 105.98C154.792 105.544 188.378 86.8754 188.141 64.2826C187.905 41.6899 153.935 23.7286 112.267 24.165C70.5996 24.6013 37.0131 43.2701 37.2497 65.8628C37.4863 88.4556 71.4564 106.417 113.124 105.98Z" fill="#FAFCFD"/>
</g>
<g style="mix-blend-mode:multiply">
<path d="M113.12 105.64C154.435 105.208 187.736 86.6943 187.501 64.2893C187.267 41.8843 153.585 24.0723 112.271 24.5049C70.9566 24.9376 37.6551 43.4511 37.8897 65.8561C38.1243 88.2611 71.8063 106.073 113.12 105.64Z" fill="#F9FBFD"/>
</g>
<g style="mix-blend-mode:multiply">
<path d="M113.117 105.29C154.083 104.861 187.104 86.5076 186.871 64.2959C186.639 42.0842 153.241 24.4259 112.274 24.8549C71.3082 25.2839 38.287 43.6378 38.5196 65.8495C38.7522 88.0612 72.1505 105.72 113.117 105.29Z" fill="#F9FBFD"/>
</g>
<g style="mix-blend-mode:multiply">
<path d="M113.113 104.951C153.731 104.525 186.472 86.3265 186.242 64.3026C186.011 42.2786 152.896 24.7696 112.278 25.1949C71.6596 25.6203 38.9189 43.819 39.1496 65.843C39.3802 87.8669 72.4949 105.376 113.113 104.951Z" fill="#F9FBFD"/>
</g>
<g style="mix-blend-mode:multiply">
<path d="M113.11 104.601C153.374 104.179 185.83 86.1399 185.602 64.3092C185.373 42.4786 152.546 25.1232 112.282 25.5449C72.0167 25.9666 39.5609 44.0056 39.7896 65.8362C40.0182 87.6669 72.8446 105.022 113.11 104.601Z" fill="#F8FBFD"/>
</g>
<g style="mix-blend-mode:multiply">
<path d="M113.106 104.261C153.023 103.843 185.198 85.9587 184.972 64.3158C184.745 42.673 152.202 25.4669 112.285 25.8849C72.3682 26.3029 40.1929 44.1868 40.4195 65.8296C40.6462 87.4725 73.189 104.679 113.106 104.261Z" fill="#F8FAFD"/>
</g>
<g style="mix-blend-mode:multiply">
<path d="M113.102 103.921C152.666 103.506 184.556 85.7776 184.332 64.3226C184.107 42.8675 151.852 25.8106 112.289 26.2249C72.7252 26.6392 40.8348 44.3679 41.0595 65.823C41.2842 87.278 73.5389 104.335 113.102 103.921Z" fill="#F7FAFD"/>
</g>
<g style="mix-blend-mode:multiply">
<path d="M113.099 103.571C152.314 103.16 183.924 85.5909 183.702 64.3291C183.479 43.0673 151.508 26.1641 112.292 26.5748C73.0768 26.9855 41.4668 44.5545 41.6894 65.8163C41.9121 87.0781 73.8831 103.981 113.099 103.571Z" fill="#F7FAFC"/>
</g>
<g style="mix-blend-mode:multiply">
<path d="M113.095 103.231C151.963 102.824 183.292 85.4098 183.072 64.3357C182.851 43.2617 151.164 26.5078 112.296 26.9149C73.4283 27.3219 42.0987 44.7357 42.3194 65.8098C42.5401 86.8838 74.2275 103.638 113.095 103.231Z" fill="#F6F9FC"/>
</g>
<g style="mix-blend-mode:multiply">
<path d="M113.092 102.891C151.606 102.487 182.65 85.2287 182.432 64.3424C182.213 43.4562 150.814 26.8515 112.3 27.2548C73.7853 27.6581 42.7406 44.9168 42.9594 65.803C43.1781 86.6893 74.5774 103.294 113.092 102.891Z" fill="#F6F9FC"/>
</g>
<g style="mix-blend-mode:multiply">
<path d="M113.088 102.541C151.254 102.141 182.018 85.042 181.802 64.349C181.585 43.656 150.469 27.2051 112.303 27.6048C74.1369 28.0045 43.3726 45.1034 43.5893 65.7964C43.806 86.4894 74.9216 102.94 113.088 102.541Z" fill="#F5F9FC"/>
</g>
<g style="mix-blend-mode:multiply">
<path d="M113.084 102.201C150.897 101.805 181.377 84.8609 181.162 64.3557C180.947 43.8505 150.12 27.5488 112.307 27.9447C74.4939 28.3407 44.0146 45.2845 44.2293 65.7897C44.4441 86.2949 75.2715 102.597 113.084 102.201Z" fill="#F5F8FC"/>
</g>
<g style="mix-blend-mode:multiply">
<path d="M113.081 101.851C150.546 101.458 180.745 84.6742 180.532 64.3623C180.319 44.0504 149.775 27.9024 112.31 28.2947C74.8455 28.6871 44.6466 45.4712 44.8593 65.7831C45.072 86.095 75.6158 102.243 113.081 101.851Z" fill="#F4F8FC"/>
</g>
<g style="mix-blend-mode:multiply">
<path d="M113.077 101.511C150.194 101.122 180.113 84.4931 179.902 64.3689C179.691 44.2448 149.431 28.2461 112.314 28.6348C75.197 29.0235 45.2785 45.6524 45.4892 65.7766C45.7 85.9007 75.9601 101.899 113.077 101.511Z" fill="#F4F8FC"/>
</g>
<g style="mix-blend-mode:multiply">
<path d="M113.074 101.171C149.837 100.786 179.471 84.312 179.262 64.3756C179.053 44.4392 149.081 28.5897 112.318 28.9747C75.554 29.3597 45.9204 45.8334 46.1292 65.7698C46.338 85.7062 76.31 101.556 113.074 101.171Z" fill="#F3F7FB"/>
</g>
<g style="mix-blend-mode:multiply">
<path d="M113.07 100.821C149.486 100.439 178.839 84.1253 178.632 64.3822C178.425 44.6391 148.737 28.9433 112.321 29.3247C75.9056 29.706 46.5524 46.0201 46.7592 65.7632C46.9659 85.5063 76.6543 101.202 113.07 100.821Z" fill="#F3F7FB"/>
</g>
<g style="mix-blend-mode:multiply">
<path d="M113.066 100.481C149.129 100.103 178.197 83.9443 177.992 64.3889C177.787 44.8336 148.387 29.287 112.325 29.6647C76.2625 30.0424 47.1943 46.2012 47.3991 65.7566C47.6039 85.3119 77.0042 100.858 113.066 100.481Z" fill="#F2F7FB"/>
</g>
<g style="mix-blend-mode:multiply">
<path d="M113.063 100.141C148.777 99.7668 177.565 83.7631 177.362 64.3955C177.159 45.028 148.043 29.6307 112.328 30.0047C76.614 30.3787 47.8263 46.3824 48.0291 65.75C48.2319 85.1175 77.3485 100.515 113.063 100.141Z" fill="#F2F6FB"/>
</g>
<g style="mix-blend-mode:multiply">
<path d="M113.059 99.7908C148.426 99.4205 176.933 83.5764 176.732 64.4021C176.531 45.2278 147.698 29.9843 112.332 30.3547C76.9656 30.725 48.4583 46.5691 48.6591 65.7434C48.8599 84.9176 77.6928 100.161 113.059 99.7908Z" fill="#F1F6FB"/>
</g>
<g style="mix-blend-mode:multiply">
<path d="M113.056 99.4508C148.069 99.0842 176.291 83.3953 176.092 64.4088C175.893 45.4223 147.348 30.3279 112.336 30.6946C77.3226 31.0613 49.1002 46.7501 49.299 65.7366C49.4979 84.7231 78.0426 99.8175 113.056 99.4508Z" fill="#F0F5FB"/>
</g>
<g style="mix-blend-mode:multiply">
<path d="M113.052 99.1009C147.717 98.7378 175.659 83.2086 175.462 64.4154C175.265 45.6222 147.004 30.6816 112.339 31.0446C77.6742 31.4076 49.7322 46.9368 49.929 65.73C50.1258 84.5233 78.3869 99.4639 113.052 99.1009Z" fill="#F0F5FA"/>
</g>
<g style="mix-blend-mode:multiply">
<path d="M113.048 98.7609C147.36 98.4016 175.017 83.0276 174.822 64.4221C174.627 45.8167 146.654 31.0253 112.343 31.3846C78.0312 31.7439 50.3741 47.1179 50.569 65.7234C50.7638 84.3288 78.7368 99.1202 113.048 98.7609Z" fill="#EFF5FA"/>
</g>
<g style="mix-blend-mode:multiply">
<path d="M113.045 98.4209C147.008 98.0652 174.385 82.8464 174.192 64.4287C173.999 46.011 146.31 31.3689 112.346 31.7246C78.3827 32.0803 51.0061 47.2991 51.1989 65.7168C51.3918 84.1344 79.0811 98.7766 113.045 98.4209Z" fill="#EEF4FA"/>
</g>
<g style="mix-blend-mode:multiply">
<path d="M113.041 98.0709C146.657 97.7189 173.753 82.6597 173.562 64.4353C173.371 46.2109 145.966 31.7225 112.35 32.0746C78.7343 32.4266 51.6381 47.4858 51.8289 65.7102C52.0198 83.9346 79.4254 98.423 113.041 98.0709Z" fill="#EEF4FA"/>
</g>
<g style="mix-blend-mode:multiply">
<path d="M113.038 97.7309C146.3 97.3826 173.111 82.4786 172.922 64.442C172.733 46.4054 145.616 32.0662 112.354 32.4145C79.0913 32.7628 52.28 47.6668 52.4689 65.7034C52.6578 83.7401 79.7753 98.0793 113.038 97.7309Z" fill="#EDF3F9"/>
</g>
<g style="mix-blend-mode:multiply">
<path d="M113.034 97.391C145.948 97.0463 172.479 82.2975 172.292 64.4486C172.105 46.5998 145.271 32.4099 112.357 32.7545C79.4427 33.0992 52.9119 47.848 53.0988 65.6969C53.2857 83.5457 80.1196 97.7357 113.034 97.391Z" fill="#ECF3F9"/>
</g>
<g style="mix-blend-mode:multiply">
<path d="M113.03 97.041C145.591 96.7 171.837 82.1109 171.652 64.4553C171.467 46.7997 144.922 32.7635 112.361 33.1045C79.7999 33.4455 53.5539 48.0346 53.7388 65.6902C53.9237 83.3457 80.4694 97.382 113.03 97.041Z" fill="#ECF2F9"/>
</g>
<g style="mix-blend-mode:multiply">
<path d="M113.027 96.701C145.24 96.3637 171.205 81.9297 171.022 64.4619C170.839 46.9941 144.577 33.1071 112.364 33.4445C80.1514 33.7818 54.1858 48.2157 54.3688 65.6836C54.5517 83.1514 80.8138 97.0384 113.027 96.701Z" fill="#EBF2F9"/>
</g>
<g style="mix-blend-mode:multiply">
<path d="M113.023 96.351C144.888 96.0173 170.573 81.743 170.392 64.4685C170.211 47.194 144.233 33.4608 112.368 33.7945C80.5029 34.1282 54.8178 48.4024 54.9987 65.677C55.1796 82.9515 81.1581 96.6847 113.023 96.351Z" fill="#EAF1F9"/>
</g>
<g style="mix-blend-mode:multiply">
<path d="M113.02 96.011C144.531 95.681 169.931 81.5619 169.752 64.4752C169.573 47.3884 143.883 33.8044 112.372 34.1344C80.8599 34.4644 55.4598 48.5835 55.6387 65.6702C55.8176 82.757 81.5079 96.341 113.02 96.011Z" fill="#E9F1F8"/>
</g>
<g style="mix-blend-mode:multiply">
<path d="M113.016 95.671C144.18 95.3447 169.299 81.3808 169.122 64.4818C168.945 47.5828 143.539 34.148 112.375 34.4744C81.2114 34.8007 56.0917 48.7646 56.2686 65.6636C56.4456 82.5626 81.8523 95.9974 113.016 95.671Z" fill="#E9F0F8"/>
</g>
<g style="mix-blend-mode:multiply">
<path d="M113.012 95.3211C143.823 94.9984 168.657 81.1942 168.483 64.4885C168.308 47.7828 143.189 34.5018 112.379 34.8244C81.5685 35.1471 56.7337 48.9513 56.9086 65.657C57.0836 82.3627 82.2021 95.6437 113.012 95.3211Z" fill="#E8F0F8"/>
</g>
<g style="mix-blend-mode:multiply">
<path d="M113.009 94.9811C143.471 94.6621 168.026 81.013 167.853 64.4951C167.68 47.9772 142.845 34.8454 112.382 35.1644C81.92 35.4834 57.3656 49.1324 57.5386 65.6504C57.7116 82.1683 82.5464 95.3001 113.009 94.9811Z" fill="#E7EFF8"/>
</g>
<g style="mix-blend-mode:multiply">
<path d="M113.005 94.6411C143.12 94.3257 167.394 80.8319 167.223 64.5017C167.052 48.1715 142.5 35.189 112.386 35.5044C82.2715 35.8197 57.9976 49.3136 58.1686 65.6437C58.3396 81.9739 82.8908 94.9565 113.005 94.6411Z" fill="#E6EFF7"/>
</g>
<g style="mix-blend-mode:multiply">
<path d="M113.002 94.2912C142.763 93.9795 166.752 80.6453 166.583 64.5084C166.414 48.3716 142.151 35.5427 112.39 35.8544C82.6286 36.166 58.6395 49.5002 58.8085 65.6371C58.9775 81.774 83.2406 94.6028 113.002 94.2912Z" fill="#E5EEF7"/>
</g>
<g style="mix-blend-mode:multiply">
<path d="M112.998 93.9512C142.411 93.6432 166.12 80.4641 165.953 64.515C165.786 48.5659 141.806 35.8863 112.393 36.1943C82.9801 36.5024 59.2714 49.6814 59.4385 65.6305C59.6055 81.5796 83.5849 94.2592 112.998 93.9512Z" fill="#E5EEF7"/>
</g>
<g style="mix-blend-mode:multiply">
<path d="M112.994 93.6012C142.054 93.2969 165.478 80.2775 165.313 64.5217C165.148 48.7659 141.456 36.24 112.397 36.5443C83.3372 36.8486 59.9135 49.868 60.0785 65.6238C60.2435 81.3796 83.9347 93.9055 112.994 93.6012Z" fill="#E4EDF7"/>
</g>
<g style="mix-blend-mode:multiply">
<path d="M112.919 93.5046C141.632 93.2175 164.782 80.3636 164.627 64.7947C164.471 49.2258 141.068 36.8375 112.355 37.1246C83.6416 37.4118 60.4911 50.2656 60.6468 65.8345C60.8025 81.4034 84.2054 93.7918 112.919 93.5046Z" fill="#E3EDF6"/>
</g>
<g style="mix-blend-mode:multiply">
<path d="M112.987 92.9212C141.351 92.6242 164.214 79.9152 164.053 64.5349C163.892 49.1546 140.768 36.9272 112.404 37.2243C84.0401 37.5213 61.1773 50.2303 61.3384 65.6105C61.4994 80.9908 84.6234 93.2182 112.987 92.9212Z" fill="#E2ECF6"/>
</g>
<g style="mix-blend-mode:multiply">
<path d="M112.984 92.5712C140.994 92.2779 163.572 79.7286 163.413 64.5416C163.254 49.3546 140.418 37.2809 112.408 37.5742C84.3972 37.8676 61.8193 50.4168 61.9783 65.6038C62.1374 80.7908 84.9732 92.8645 112.984 92.5712Z" fill="#E1EBF6"/>
</g>
<g style="mix-blend-mode:multiply">
<path d="M112.98 92.2313C140.642 91.9416 162.94 79.5474 162.783 64.5482C162.626 49.549 140.074 37.6246 112.411 37.9143C84.7487 38.2039 62.4512 50.598 62.6083 65.5973C62.7654 80.5965 85.3176 92.521 112.98 92.2313Z" fill="#E0EBF6"/>
</g>
<g style="mix-blend-mode:multiply">
<path d="M112.976 91.8813C140.285 91.5953 162.298 79.3609 162.143 64.5549C161.988 49.749 139.724 37.9782 112.415 38.2642C85.1058 38.5502 63.0932 50.7846 63.2483 65.5906C63.4033 80.3965 85.6673 92.1673 112.976 91.8813Z" fill="#DFEAF5"/>
</g>
<g style="mix-blend-mode:multiply">
<path d="M112.902 91.7846C139.864 91.515 161.603 79.4454 161.457 64.8264C161.311 50.2074 139.335 38.575 112.372 38.8446C85.4096 39.1143 63.6706 51.1838 63.8168 65.8028C63.963 80.4218 85.939 92.0542 112.902 91.7846Z" fill="#DEEAF5"/>
</g>
<g style="mix-blend-mode:multiply">
<path d="M112.969 91.2013C139.582 90.9226 161.034 78.9985 160.883 64.5681C160.732 50.1377 139.035 38.6655 112.422 38.9442C85.8088 39.2229 64.3571 51.1469 64.5082 65.5773C64.6593 80.0078 86.3561 91.48 112.969 91.2013Z" fill="#DDE9F5"/>
</g>
<g style="mix-blend-mode:multiply">
<path d="M112.966 90.8514C139.225 90.5764 160.392 78.812 160.243 64.5748C160.094 50.3377 138.685 39.0192 112.426 39.2942C86.1659 39.5692 64.9991 51.3336 65.1482 65.5707C65.2973 79.8078 86.7058 91.1264 112.966 90.8514Z" fill="#DCE8F4"/>
</g>
<g style="mix-blend-mode:multiply">
<path d="M112.962 90.5114C138.874 90.24 159.76 78.6308 159.613 64.5814C159.466 50.5321 138.341 39.3628 112.429 39.6342C86.5174 39.9055 65.631 51.5147 65.7781 65.5641C65.9253 79.6134 87.0502 90.7827 112.962 90.5114Z" fill="#DBE8F4"/>
</g>
<g style="mix-blend-mode:multiply">
<path d="M112.958 90.1814C138.517 89.9137 159.118 78.4597 158.973 64.5981C158.828 50.7365 137.991 39.7165 112.433 39.9841C86.8744 40.2518 66.273 51.7058 66.4181 65.5674C66.5633 79.429 87.4001 90.449 112.958 90.1814Z" fill="#DAE7F4"/>
</g>
<g style="mix-blend-mode:multiply">
<path d="M112.955 89.8214C138.165 89.5574 158.486 78.263 158.343 64.5947C158.2 50.9264 137.647 40.0601 112.436 40.3241C87.226 40.5881 66.9049 51.8825 67.0481 65.5508C67.1912 79.2191 87.7443 90.0854 112.955 89.8214Z" fill="#D9E6F3"/>
</g>
<g style="mix-blend-mode:multiply">
<path d="M112.951 89.4814C137.814 89.221 157.854 78.0818 157.713 64.6013C157.572 51.1207 137.302 40.4037 112.44 40.6641C87.5774 40.9244 67.5368 52.0636 67.678 65.5441C67.8192 79.0247 88.0887 89.7417 112.951 89.4814Z" fill="#D8E6F3"/>
</g>
<g style="mix-blend-mode:multiply">
<path d="M112.948 89.1314C137.457 88.8747 157.212 77.8952 157.073 64.608C156.934 51.3207 136.953 40.7574 112.444 41.014C87.9346 41.2707 68.1788 52.2502 68.318 65.5374C68.4571 78.8247 88.4385 89.3881 112.948 89.1314Z" fill="#D7E5F3"/>
</g>
<g style="mix-blend-mode:multiply">
<path d="M112.874 89.0446C137.036 88.803 156.518 77.9873 156.387 64.8871C156.256 51.7869 136.562 41.363 112.4 41.6046C88.2371 41.8462 68.7558 52.6619 68.8868 65.7621C69.0178 78.8623 88.7115 89.2862 112.874 89.0446Z" fill="#D6E4F2"/>
</g>
<g style="mix-blend-mode:multiply">
<path d="M112.94 88.4514C136.748 88.2021 155.938 77.533 155.803 64.6213C155.668 51.7096 136.258 41.4447 112.451 41.694C88.643 41.9433 69.4527 52.6124 69.5879 65.5242C69.7231 78.4359 89.1327 88.7008 112.94 88.4514Z" fill="#D5E4F2"/>
</g>
<g style="mix-blend-mode:multiply">
<path d="M112.937 88.1015C136.397 87.8558 155.306 77.3463 155.173 64.6279C155.04 51.9095 135.914 41.7983 112.454 42.044C88.9946 42.2897 70.0847 52.7991 70.2179 65.5176C70.3511 78.236 89.477 88.3472 112.937 88.1015Z" fill="#D4E3F2"/>
</g>
<g style="mix-blend-mode:multiply">
<path d="M112.933 87.7615C136.045 87.5195 154.675 77.1652 154.543 64.6345C154.412 52.1039 135.57 42.142 112.458 42.384C89.3461 42.6261 70.7166 52.9804 70.8479 65.511C70.9791 78.0417 89.8213 88.0036 112.933 87.7615Z" fill="#D3E2F1"/>
</g>
<g style="mix-blend-mode:multiply">
<path d="M112.93 87.4215C135.688 87.1832 154.033 76.9841 153.903 64.6412C153.774 52.2983 135.22 42.4856 112.462 42.724C89.7031 42.9623 71.3585 53.1614 71.4878 65.5043C71.6171 77.8472 90.1712 87.6599 112.93 87.4215Z" fill="#D2E1F1"/>
</g>
<g style="mix-blend-mode:multiply">
<path d="M112.926 87.0715C135.336 86.8369 153.401 76.7974 153.273 64.6478C153.146 52.4982 134.876 42.8393 112.465 43.074C90.0547 43.3086 71.9905 53.3481 72.1178 65.4977C72.245 77.6473 90.5155 87.3062 112.926 87.0715Z" fill="#D0E1F1"/>
</g>
<g style="mix-blend-mode:multiply">
<path d="M112.922 86.7315C134.979 86.5005 152.759 76.6163 152.633 64.6545C152.508 52.6926 134.526 43.1829 112.469 43.4139C90.4117 43.6449 72.6325 53.5291 72.7578 65.491C72.883 77.4528 90.8654 86.9625 112.922 86.7315Z" fill="#CFE0F0"/>
</g>
<g style="mix-blend-mode:multiply">
<path d="M112.919 86.3816C134.628 86.1542 152.127 76.4296 152.003 64.6611C151.88 52.8925 134.182 43.5365 112.472 43.7639C90.7633 43.9912 73.2645 53.7158 73.3877 65.4844C73.511 77.2529 91.2096 86.6089 112.919 86.3816Z" fill="#CEDFF0"/>
</g>
<g style="mix-blend-mode:multiply">
<path d="M112.915 86.0415C134.276 85.8178 151.495 76.2484 151.373 64.6677C151.252 53.0869 133.837 43.8802 112.476 44.1039C91.1148 44.3276 73.8964 53.897 74.0177 65.4777C74.1389 77.0585 91.554 86.2653 112.915 86.0415Z" fill="#CDDEF0"/>
</g>
<g style="mix-blend-mode:multiply">
<path d="M112.843 85.9446C133.852 85.7345 150.791 76.3278 150.677 64.9342C150.563 53.5406 133.439 44.4745 112.431 44.6846C91.4216 44.8947 74.4829 54.3014 74.5968 65.695C74.7107 77.0886 91.8342 86.1547 112.843 85.9446Z" fill="#CCDEEF"/>
</g>
<g style="mix-blend-mode:multiply">
<path d="M112.908 85.3516C133.568 85.1353 150.221 75.8807 150.104 64.681C149.986 53.4813 133.143 44.5775 112.483 44.7939C91.8234 45.0102 75.1703 54.2648 75.2876 65.4645C75.4049 76.6642 92.2481 85.568 112.908 85.3516Z" fill="#CBDDEF"/>
</g>
<g style="mix-blend-mode:multiply">
<path d="M112.904 85.0117C133.211 84.799 149.579 75.6997 149.464 64.6877C149.348 53.6758 132.793 44.9212 112.487 45.1339C92.1804 45.3465 75.8122 54.4459 75.9276 65.4578C76.0429 76.4698 92.598 85.2243 112.904 85.0117Z" fill="#C9DCEF"/>
</g>
<g style="mix-blend-mode:multiply">
<path d="M112.901 84.6717C132.859 84.4627 148.947 75.5185 148.834 64.6943C148.72 53.8701 132.449 45.2648 112.49 45.4738C92.5319 45.6829 76.4442 54.627 76.5575 65.4512C76.6709 76.2754 92.9423 84.8807 112.901 84.6717Z" fill="#C8DBEE"/>
</g>
<g style="mix-blend-mode:multiply">
<path d="M112.897 84.3217C132.508 84.1163 148.315 75.3318 148.204 64.7009C148.092 54.07 132.105 45.6184 112.494 45.8238C92.8834 46.0291 77.0762 54.8137 77.1875 65.4446C77.2988 76.0755 93.2866 84.527 112.897 84.3217Z" fill="#C7DAEE"/>
</g>
<g style="mix-blend-mode:multiply">
<path d="M112.894 83.9817C132.151 83.78 147.673 75.1507 147.564 64.7076C147.454 54.2644 131.755 45.9621 112.498 46.1638C93.2404 46.3654 77.7181 54.9948 77.8275 65.4379C77.9368 75.881 93.6365 84.1834 112.894 83.9817Z" fill="#C5D9ED"/>
</g>
<g style="mix-blend-mode:multiply">
<path d="M112.89 83.6317C131.799 83.4337 147.041 74.964 146.934 64.7142C146.826 54.4643 131.41 46.3157 112.501 46.5138C93.592 46.7118 78.3501 55.1815 78.4574 65.4313C78.5648 75.6811 93.9807 83.8298 112.89 83.6317Z" fill="#C4D9ED"/>
</g>
<g style="mix-blend-mode:multiply">
<path d="M112.886 83.2917C131.442 83.0974 146.399 74.7829 146.294 64.7208C146.188 54.6588 131.061 46.6594 112.505 46.8537C93.949 47.048 78.992 55.3625 79.0974 65.4246C79.2028 75.4866 94.3306 83.486 112.886 83.2917Z" fill="#C3D8ED"/>
</g>
<g style="mix-blend-mode:multiply">
<path d="M112.883 82.9517C131.091 82.761 145.767 74.6017 145.664 64.7274C145.56 54.8531 130.716 47.003 112.508 47.1937C94.3005 47.3844 79.624 55.5436 79.7274 65.4179C79.8308 75.2923 94.675 83.1424 112.883 82.9517Z" fill="#C2D7EC"/>
</g>
<g style="mix-blend-mode:multiply">
<path d="M112.879 82.6018C130.739 82.4147 145.135 74.4151 145.034 64.734C144.932 55.053 130.372 47.3566 112.512 47.5437C94.6521 47.7307 80.256 55.7303 80.3573 65.4114C80.4587 75.0924 95.0192 82.7888 112.879 82.6018Z" fill="#C0D6EC"/>
</g>
<g style="mix-blend-mode:multiply">
<path d="M112.876 82.2618C130.382 82.0785 144.493 74.234 144.394 64.7408C144.294 55.2475 130.022 47.7003 112.516 47.8837C95.0091 48.067 80.8979 55.9114 80.9973 65.4047C81.0967 74.8979 95.3691 82.4451 112.876 82.2618Z" fill="#BFD5EB"/>
</g>
<g style="mix-blend-mode:multiply">
<path d="M112.872 81.9218C130.031 81.7421 143.861 74.0528 143.764 64.7474C143.666 55.4419 129.678 48.044 112.519 48.2237C95.3606 48.4033 81.5298 56.0926 81.6273 65.3981C81.7247 74.7036 95.7135 82.1015 112.872 81.9218Z" fill="#BDD4EB"/>
</g>
<g style="mix-blend-mode:multiply">
<path d="M112.868 81.5718C129.673 81.3958 143.219 73.8663 143.124 64.7541C143.028 55.6419 129.328 48.3976 112.523 48.5736C95.7177 48.7496 82.1718 56.2792 82.2672 65.3914C82.3626 74.5036 96.0632 81.7478 112.868 81.5718Z" fill="#BCD3EA"/>
</g>
<g style="mix-blend-mode:multiply">
<path d="M112.865 81.2319C129.322 81.0595 142.587 73.6851 142.494 64.7607C142.4 55.8363 128.984 48.7413 112.526 48.9136C96.0692 49.086 82.8037 56.4604 82.8972 65.3848C82.9907 74.3092 96.4076 81.4042 112.865 81.2319Z" fill="#BBD2EA"/>
</g>
<g style="mix-blend-mode:multiply">
<path d="M112.861 80.8819C128.97 80.7132 141.955 73.4984 141.864 64.7673C141.773 56.0362 128.639 49.0949 112.53 49.2636C96.4208 49.4323 83.4357 56.6471 83.5272 65.3782C83.6186 74.1094 96.7519 81.0506 112.861 80.8819Z" fill="#B9D1EA"/>
</g>
<g style="mix-blend-mode:multiply">
<path d="M84.16 65.39C84.25 73.94 97.09 80.73 112.85 80.56C128.61 80.39 141.31 73.34 141.22 64.79C141.13 56.24 128.28 49.46 112.53 49.62C96.78 49.78 84.08 56.83 84.16 65.39Z" fill="#B8D0E9"/>
</g>
<g style="mix-blend-mode:multiply">
<path d="M112.854 80.2019C128.262 80.0405 140.682 73.1362 140.594 64.7806C140.507 56.4249 127.945 49.7822 112.537 49.9436C97.1292 50.1049 84.7096 57.0093 84.7971 65.3649C84.8846 73.7205 97.4461 80.3632 112.854 80.2019Z" fill="#B6D0E9"/>
</g>
<g style="mix-blend-mode:multiply">
<path d="M112.85 79.8619C127.905 79.7043 140.04 72.9596 139.954 64.7973C139.869 56.6349 127.595 50.1459 112.541 50.3035C97.4863 50.4612 85.3516 57.2059 85.4371 65.3682C85.5225 73.5305 97.7959 80.0196 112.85 79.8619Z" fill="#B5CFE8"/>
</g>
<g style="mix-blend-mode:multiply">
<path d="M112.847 79.5219C127.553 79.3679 139.408 72.7784 139.324 64.8038C139.241 56.8293 127.251 50.4895 112.544 50.6435C97.8378 50.7975 85.9835 57.387 86.067 65.3616C86.1505 73.3361 98.1402 79.6759 112.847 79.5219Z" fill="#B3CEE8"/>
</g>
<g style="mix-blend-mode:multiply">
<path d="M112.843 79.172C127.196 79.0216 138.766 72.5873 138.684 64.8006C138.603 57.0138 126.901 50.8232 112.548 50.9735C98.1948 51.1238 86.6254 57.5581 86.707 65.3449C86.7885 73.1317 98.4901 79.3223 112.843 79.172Z" fill="#B2CDE7"/>
</g>
<g style="mix-blend-mode:multiply">
<path d="M112.84 78.832C126.845 78.6853 138.134 72.4107 138.054 64.8172C137.975 57.2237 126.557 51.1868 112.552 51.3335C98.5464 51.4802 87.2574 57.7548 87.3369 65.3483C87.4165 72.9418 98.8344 78.9787 112.84 78.832Z" fill="#B0CCE7"/>
</g>
<g style="mix-blend-mode:multiply">
<path d="M112.836 78.482C126.493 78.339 137.502 72.2195 137.424 64.8137C137.347 57.408 126.212 51.5204 112.555 51.6635C98.8979 51.8065 87.8893 57.9259 87.9669 65.3317C88.0445 72.7374 99.1787 78.625 112.836 78.482Z" fill="#AFCBE6"/>
</g>
<g style="mix-blend-mode:multiply">
<path d="M88.61 65.33C88.68 72.54 99.53 78.28 112.83 78.14C126.13 78 136.83 72.03 136.83 64.82C136.83 57.61 125.91 51.82 112.6 52.01C99.29 52.2 88.53 58.11 88.61 65.33Z" fill="#ADCAE6"/>
</g>
<g style="mix-blend-mode:multiply">
<path d="M112.829 77.792C125.785 77.6564 136.228 71.8518 136.154 64.8271C136.081 57.8024 125.518 52.2178 112.562 52.3535C99.6065 52.4891 89.1633 58.2937 89.2368 65.3184C89.3104 72.3431 99.8729 77.9277 112.829 77.792Z" fill="#ACC9E5"/>
</g>
<g style="mix-blend-mode:multiply">
<path d="M112.825 77.4621C125.428 77.3301 135.586 71.6807 135.514 64.8438C135.443 58.0069 125.168 52.5714 112.566 52.7034C99.9635 52.8354 89.8052 58.4848 89.8768 65.3217C89.9484 72.1586 100.223 77.594 112.825 77.4621Z" fill="#AAC8E5"/>
</g>
<g style="mix-blend-mode:multiply">
<path d="M112.822 77.1021C125.076 76.9737 134.954 71.484 134.884 64.8404C134.815 58.1967 124.824 52.9151 112.57 53.0434C100.315 53.1717 90.4372 58.6615 90.5068 65.3051C90.5763 71.9487 100.567 77.2304 112.822 77.1021Z" fill="#A9C7E5"/>
</g>
<g style="mix-blend-mode:multiply">
<path d="M112.818 76.7621C124.725 76.6374 134.322 71.3028 134.254 64.8469C134.187 58.3911 124.48 53.2587 112.573 53.3834C100.667 53.508 91.0692 58.8426 91.1368 65.2985C91.2044 71.7543 100.911 76.8868 112.818 76.7621Z" fill="#A7C6E4"/>
</g>
<g style="mix-blend-mode:multiply">
<path d="M91.78 65.29C91.84 71.56 101.26 76.54 112.78 76.42C124.3 76.3 133.64 71.12 133.58 64.85C133.52 58.58 124.09 53.61 112.58 53.73C101.07 53.85 91.71 59.03 91.78 65.29Z" fill="#A5C4E4"/>
</g>
<g style="mix-blend-mode:multiply">
<path d="M112.811 76.0821C124.016 75.9648 133.048 70.945 132.984 64.8702C132.921 58.7954 123.786 53.966 112.58 54.0833C101.375 54.2006 92.343 59.2204 92.4067 65.2952C92.4703 71.37 101.606 76.1994 112.811 76.0821Z" fill="#A4C3E3"/>
</g>
<g style="mix-blend-mode:multiply">
<path d="M112.743 75.9746C123.596 75.866 132.346 71.0054 132.287 65.1181C132.228 59.2307 123.383 54.5461 112.53 54.6546C101.678 54.7631 92.9279 59.6237 92.9868 65.5111C93.0457 71.3984 101.891 76.0831 112.743 75.9746Z" fill="#A2C2E3"/>
</g>
<g style="mix-blend-mode:multiply">
<path d="M93.68 65.27C93.74 70.97 102.3 75.5 112.81 75.39C123.32 75.28 131.81 70.57 131.72 64.87C131.63 59.17 123.09 54.65 112.59 54.76C102.09 54.87 93.62 59.58 93.68 65.27Z" fill="#A0C1E2"/>
</g>
<g style="mix-blend-mode:multiply">
<path d="M112.8 75.0422C122.956 74.9359 131.142 70.3862 131.085 64.8802C131.027 59.3742 122.747 54.997 112.591 55.1033C102.435 55.2097 94.2489 59.7594 94.3066 65.2653C94.3642 70.7713 102.644 75.1486 112.8 75.0422Z" fill="#9FC0E1"/>
</g>
<g style="mix-blend-mode:multiply">
<path d="M112.796 74.7022C122.599 74.5996 130.5 70.2051 130.445 64.8869C130.389 59.5687 122.397 55.3406 112.595 55.4433C102.792 55.5459 94.8909 59.9404 94.9465 65.2586C95.0022 70.5768 102.994 74.8049 112.796 74.7022Z" fill="#9DBFE1"/>
</g>
<g style="mix-blend-mode:multiply">
<path d="M112.793 74.3523C122.247 74.2532 129.868 70.0184 129.815 64.8935C129.761 59.7685 122.053 55.6942 112.598 55.7933C103.144 55.8923 95.5228 60.1271 95.5765 65.252C95.6302 70.3769 103.338 74.4513 112.793 74.3523Z" fill="#9BBEE0"/>
</g>
<g style="mix-blend-mode:multiply">
<path d="M96.21 65.25C96.27 70.18 103.69 74.11 112.79 74.01C121.89 73.91 129.23 69.84 129.18 64.9C129.13 59.96 121.71 56.04 112.6 56.14C103.49 56.24 96.16 60.31 96.21 65.25Z" fill="#9ABDE0"/>
</g>
<g style="mix-blend-mode:multiply">
<path d="M96.85 65.24C96.9 69.99 104.03 73.76 112.79 73.67C121.55 73.58 128.6 69.67 128.55 64.91C128.5 60.15 121.36 56.39 112.61 56.48C103.86 56.57 96.8 60.49 96.85 65.24Z" fill="#98BCDF"/>
</g>
<g style="mix-blend-mode:multiply">
<path d="M97.48 65.23C97.53 69.79 104.38 73.41 112.78 73.32C121.18 73.23 127.96 69.47 127.91 64.91C127.86 60.35 121.01 56.73 112.61 56.82C104.21 56.91 97.43 60.68 97.48 65.23Z" fill="#96BADF"/>
</g>
<g style="mix-blend-mode:multiply">
<path d="M112.778 72.9823C120.83 72.898 127.32 69.2884 127.275 64.9201C127.229 60.5517 120.665 57.0789 112.613 57.1632C104.561 57.2475 98.0706 60.8571 98.1163 65.2254C98.1621 69.5937 104.727 73.0666 112.778 72.9823Z" fill="#94B9DE"/>
</g>
<g style="mix-blend-mode:multiply">
<path d="M98.75 65.22C98.75 69.4 105.07 72.72 112.75 72.64C120.43 72.56 126.66 69.1 126.62 64.93C126.58 60.76 120.29 57.43 112.62 57.51C104.95 57.59 98.71 61.04 98.75 65.22Z" fill="#92B8DE"/>
</g>
<g style="mix-blend-mode:multiply">
<path d="M99.38 65.21C99.38 69.21 105.38 72.37 112.77 72.29C120.16 72.21 126.05 68.92 126.01 64.93C125.97 60.94 120.01 57.78 112.62 57.85C105.23 57.92 99.34 61.23 99.38 65.21Z" fill="#91B7DD"/>
</g>
<g style="mix-blend-mode:multiply">
<path d="M112.768 71.9524C119.77 71.8791 125.415 68.7395 125.375 64.94C125.335 61.1405 119.626 58.1198 112.624 58.1931C105.621 58.2665 99.9764 61.406 100.016 65.2055C100.056 69.0051 105.765 72.0257 112.768 71.9524Z" fill="#8FB6DD"/>
</g>
<g style="mix-blend-mode:multiply">
<path d="M100.65 65.2C100.65 68.81 106.11 71.67 112.77 71.6C119.43 71.53 124.77 68.55 124.77 64.95C124.77 61.35 119.31 58.47 112.66 58.54C106.01 58.61 100.61 61.59 100.65 65.2Z" fill="#8DB5DC"/>
</g>
<g style="mix-blend-mode:multiply">
<path d="M101.29 65.19C101.29 68.61 106.46 71.33 112.76 71.26C119.06 71.19 124.16 68.39 124.16 64.95C124.16 61.51 118.99 58.82 112.68 58.89C106.37 58.96 101.25 61.78 101.29 65.19Z" fill="#8BB3DB"/>
</g>
<g style="mix-blend-mode:multiply">
<path d="M101.92 65.19C101.92 68.41 106.81 70.98 112.76 70.92C118.71 70.86 123.51 68.19 123.48 64.92C123.45 61.65 118.59 59.13 112.64 59.19C106.69 59.25 101.89 61.96 101.92 65.19Z" fill="#89B2DB"/>
</g>
<g style="mix-blend-mode:multiply">
<path d="M102.55 65.18C102.55 68.18 107.15 70.63 112.76 70.57C118.37 70.51 122.87 68 122.84 64.97C122.81 61.94 118.24 59.51 112.64 59.57C107.04 59.63 102.52 62.14 102.55 65.18Z" fill="#87B1DA"/>
</g>
<g style="mix-blend-mode:multiply">
<path d="M103.16 65.17C103.16 68.02 107.47 70.28 112.72 70.23C117.97 70.18 122.21 67.82 122.18 64.97C122.15 62.12 117.87 59.86 112.61 59.92C107.35 59.98 103.16 62.32 103.16 65.17Z" fill="#85B0DA"/>
</g>
<g style="mix-blend-mode:multiply">
<path d="M103.82 65.17C103.82 67.82 107.82 69.94 112.75 69.89C117.68 69.84 121.6 67.64 121.57 64.98C121.54 62.32 117.57 60.21 112.65 60.26C107.73 60.31 103.79 62.51 103.82 65.17Z" fill="#84AED9"/>
</g>
<g style="mix-blend-mode:multiply">
<path d="M104.46 65.16C104.46 67.63 108.19 69.59 112.74 69.54C117.29 69.49 120.97 67.45 120.94 64.99C120.91 62.53 117.2 60.56 112.65 60.6C108.1 60.64 104.43 62.69 104.46 65.16Z" fill="#82ADD9"/>
</g>
<g style="mix-blend-mode:multiply">
<path d="M105.09 65.15C105.09 67.43 108.54 69.24 112.74 69.2C116.94 69.16 120.33 67.27 120.31 64.99C120.29 62.71 116.86 60.9 112.65 60.99C108.44 61.08 105.07 62.87 105.09 65.15Z" fill="#80ACD8"/>
</g>
<g style="mix-blend-mode:multiply">
<path d="M105.72 65.15C105.72 67.23 108.89 68.89 112.72 68.85C116.55 68.81 119.67 67.09 119.65 65C119.63 62.91 116.49 61.25 112.65 61.29C108.81 61.33 105.7 63.06 105.72 65.15Z" fill="#7EAAD7"/>
</g>
<g style="mix-blend-mode:multiply">
<path d="M106.36 65.14C106.36 67.04 109.23 68.55 112.73 68.51C116.23 68.47 119.06 66.9 119.04 65.01C119.02 63.12 116.16 61.6 112.66 61.64C109.16 61.68 106.34 63.24 106.36 65.14Z" fill="#7CA9D7"/>
</g>
<g style="mix-blend-mode:multiply">
<path d="M106.99 65.13C106.99 66.84 109.58 68.2 112.73 68.13C115.88 68.06 118.42 66.68 118.4 64.97C118.38 63.26 115.82 61.91 112.67 61.97C109.52 62.03 106.97 63.39 106.99 65.13Z" fill="#7AA8D6"/>
</g>
<g style="mix-blend-mode:multiply">
<path d="M107.63 65.13C107.63 66.65 109.93 67.85 112.73 67.82C115.53 67.79 117.79 66.54 117.73 65.02C117.67 63.5 115.43 62.29 112.63 62.32C109.83 62.35 107.61 63.61 107.63 65.13Z" fill="#78A7D5"/>
</g>
<g style="mix-blend-mode:multiply">
<path d="M108.26 65.12C108.26 66.45 110.26 67.5 112.72 67.48C115.18 67.46 117.16 66.39 117.16 65.03C117.16 63.67 115.16 62.64 112.69 62.67C110.22 62.7 108.25 63.79 108.26 65.12Z" fill="#76A5D5"/>
</g>
<g style="mix-blend-mode:multiply">
<path d="M108.89 65.11C108.89 66.25 110.62 67.16 112.72 67.11C114.82 67.06 116.51 66.11 116.5 65C116.49 63.89 114.78 63 112.68 63C110.58 63 108.88 63.97 108.89 65.11Z" fill="#74A4D4"/>
</g>
<g style="mix-blend-mode:multiply">
<path d="M109.53 65.11C109.53 66.06 110.96 66.81 112.72 66.79C114.48 66.77 115.88 65.99 115.87 65.04C115.86 64.09 114.43 63.34 112.68 63.35C110.93 63.36 109.52 64.16 109.53 65.11Z" fill="#71A3D4"/>
</g>
<g style="mix-blend-mode:multiply">
<path d="M110.16 65.1C110.16 65.86 111.31 66.46 112.71 66.45C114.11 66.44 115.24 65.81 115.23 65.05C115.22 64.29 114.08 63.68 112.68 63.7C111.28 63.72 110.16 64.39 110.16 65.1Z" fill="#6FA1D3"/>
</g>
<g style="mix-blend-mode:multiply">
<path d="M110.8 65.09C110.8 65.66 111.66 66.09 112.71 66.09C113.76 66.09 114.61 65.61 114.6 65.04C114.59 64.47 113.74 64.04 112.69 64.04C111.64 64.04 110.79 64.52 110.8 65.09Z" fill="#6DA0D2"/>
</g>
<g style="mix-blend-mode:multiply">
<path d="M111.43 65.09C111.43 65.47 112 65.77 112.7 65.76C113.4 65.75 113.97 65.44 113.97 65.06C113.97 64.68 113.39 64.38 112.69 64.39C111.99 64.4 111.43 64.71 111.43 65.09Z" fill="#6B9ED2"/>
</g>
<g style="mix-blend-mode:multiply">
<path d="M112.06 65.08C112.06 65.27 112.35 65.42 112.7 65.42C113.05 65.42 113.33 65.26 113.33 65.07C113.33 64.88 113.04 64.73 112.69 64.73C112.34 64.73 112.06 64.89 112.06 65.08Z" fill="#699DD1"/>
</g>
</g>
</g>
<path d="M144.34 102.82L186.59 78.36C187.171 78.0978 187.667 77.6774 188.02 77.1469C188.374 76.6165 188.571 75.9973 188.59 75.36V69.23L186.22 72C186.066 71.8906 185.906 71.7905 185.74 71.7L99.2901 21.93C95.8601 19.93 90.6701 19.75 87.7101 21.47L46.0501 45.59L43.4401 42.72V48.72C43.3701 50.07 44.3401 51.51 46.2701 52.63L132.7 102.37C136.19 104.33 141.37 104.54 144.34 102.82Z" fill="#396CAA"/>
<path d="M167.18 87.81L164.75 89.22C164.43 89.4 164.17 89.22 164.17 88.77C164.172 88.5524 164.226 88.3383 164.327 88.1454C164.428 87.9525 164.573 87.7862 164.75 87.66L167.18 86.25C167.51 86.06 167.77 86.25 167.77 86.69C167.766 86.9099 167.711 87.1259 167.609 87.3205C167.506 87.5151 167.359 87.6828 167.18 87.81Z" fill="#173D7A"/>
<path d="M99.2901 21.93C95.8601 19.93 90.6701 19.75 87.7101 21.47L46.0501 45.59L43.4401 42.72V48.72C43.3701 50.07 44.3401 51.51 46.2701 52.63L132.7 102.37C134.631 103.422 136.791 103.981 138.99 104L138.91 44.74L99.2901 21.93Z" fill="#5793CE"/>
<path d="M45.47 39.77L87.72 15.3C90.72 13.59 95.87 13.79 99.3 15.77L185.73 65.51C189.16 67.51 189.53 70.51 186.57 72.19L144.29 96.66C141.29 98.37 136.14 98.17 132.71 96.19L46.29 46.46C42.88 44.48 42.51 41.49 45.47 39.77Z" fill="#D4ECFF"/>
<path d="M144.35 97.31L186.6 72.85C188.13 71.96 188.76 70.73 188.6 69.48C188.522 70.0635 188.297 70.6177 187.947 71.0914C187.598 71.5651 187.134 71.943 186.6 72.19L144.29 96.66C141.29 98.37 136.14 98.17 132.71 96.19L46.2901 46.46C45.6101 46.1423 45.008 45.6795 44.526 45.1042C44.044 44.529 43.6938 43.8551 43.5001 43.13C43.4001 44.5 44.3501 45.97 46.3301 47.13L132.75 96.87C136.2 98.82 141.39 99 144.35 97.31Z" fill="white"/>
<path d="M48.7301 40.73L89.2901 17.23C91.5001 15.95 95.35 16.1 97.9 17.57L183.1 66.57C185.65 68.04 185.93 70.26 183.72 71.57L143.13 95.08C140.92 96.36 137.07 96.2 134.52 94.73L49.3201 45.73C46.8001 44.24 46.5201 42 48.7301 40.73Z" fill="#173D7A"/>
<path d="M132.93 82.87L161.58 66.33L159.75 65.28L131.1 81.81L132.93 82.87Z" fill="#D4ECFF"/>
<path d="M152.86 78.05L167.37 69.67L165.54 68.62L151.03 76.99L152.86 78.05Z" fill="#D4ECFF"/>
<path d="M145.83 82.11L150.53 79.4L148.7 78.34L144 81.06L145.83 82.11Z" fill="#FF2C9C"/>
<path d="M138.72 86.21L143.43 83.5L141.6 82.44L136.89 85.16L138.72 86.21Z" fill="white"/>
<path d="M152.7 74.8L164.47 68L162.64 66.95L150.87 73.74L152.7 74.8Z" fill="white"/>
<path d="M138.33 83.09L150.1 76.3L148.27 75.24L136.5 82.04L138.33 83.09Z" fill="#D4ECFF"/>
<path d="M147.05 68.57C147.38 68.7377 147.745 68.8252 148.115 68.8252C148.485 68.8252 148.85 68.7377 149.18 68.57C149.308 68.5261 149.419 68.4432 149.498 68.333C149.577 68.2227 149.62 68.0905 149.62 67.955C149.62 67.8194 149.577 67.6873 149.498 67.577C149.419 67.4667 149.308 67.3839 149.18 67.34C148.851 67.1674 148.486 67.0773 148.115 67.0773C147.744 67.0773 147.378 67.1674 147.05 67.34C146.922 67.3839 146.81 67.4667 146.732 67.577C146.653 67.6873 146.61 67.8194 146.61 67.955C146.61 68.0905 146.653 68.2227 146.732 68.333C146.81 68.4432 146.922 68.5261 147.05 68.57Z" fill="#FF2C9C"/>
<path d="M143.86 70.41C144.19 70.5777 144.555 70.6652 144.925 70.6652C145.295 70.6652 145.66 70.5777 145.99 70.41C146.118 70.3661 146.23 70.2832 146.308 70.173C146.387 70.0627 146.43 69.9305 146.43 69.795C146.43 69.6594 146.387 69.5273 146.308 69.417C146.23 69.3067 146.118 69.2239 145.99 69.18C145.66 69.0122 145.295 68.9248 144.925 68.9248C144.555 68.9248 144.19 69.0122 143.86 69.18C143.732 69.2239 143.62 69.3067 143.542 69.417C143.463 69.5273 143.42 69.6594 143.42 69.795C143.42 69.9305 143.463 70.0627 143.542 70.173C143.62 70.2832 143.732 70.3661 143.86 70.41Z" fill="white"/>
<path d="M140.67 72.25C141.002 72.4178 141.368 72.5053 141.74 72.5053C142.112 72.5053 142.478 72.4178 142.81 72.25C142.938 72.2061 143.05 72.1232 143.128 72.013C143.207 71.9027 143.25 71.7705 143.25 71.635C143.25 71.4994 143.207 71.3673 143.128 71.257C143.05 71.1467 142.938 71.0639 142.81 71.02C142.478 70.8522 142.112 70.7647 141.74 70.7647C141.368 70.7647 141.002 70.8522 140.67 71.02C140.542 71.0639 140.43 71.1467 140.352 71.257C140.273 71.3673 140.23 71.4994 140.23 71.635C140.23 71.7705 140.273 71.9027 140.352 72.013C140.43 72.1232 140.542 72.2061 140.67 72.25Z" fill="#D4ECFF"/>
<path d="M137.48 74.09C137.812 74.2579 138.178 74.3453 138.55 74.3453C138.922 74.3453 139.288 74.2579 139.62 74.09C139.748 74.0461 139.86 73.9633 139.938 73.853C140.017 73.7427 140.06 73.6106 140.06 73.475C140.06 73.3395 140.017 73.2073 139.938 73.0971C139.86 72.9868 139.748 72.9039 139.62 72.86C139.288 72.6922 138.922 72.6047 138.55 72.6047C138.178 72.6047 137.812 72.6922 137.48 72.86C137.352 72.9039 137.24 72.9868 137.162 73.0971C137.083 73.2073 137.04 73.3395 137.04 73.475C137.04 73.6106 137.083 73.7427 137.162 73.853C137.24 73.9633 137.352 74.0461 137.48 74.09Z" fill="#FF2C9C"/>
<path d="M134.29 75.93C134.62 76.0977 134.985 76.1852 135.355 76.1852C135.725 76.1852 136.09 76.0977 136.42 75.93C136.548 75.8861 136.66 75.8033 136.738 75.693C136.817 75.5827 136.86 75.4505 136.86 75.315C136.86 75.1795 136.817 75.0473 136.738 74.937C136.66 74.8268 136.548 74.7439 136.42 74.7C136.09 74.5323 135.725 74.4448 135.355 74.4448C134.985 74.4448 134.62 74.5323 134.29 74.7C134.162 74.7439 134.05 74.8268 133.972 74.937C133.893 75.0473 133.85 75.1795 133.85 75.315C133.85 75.4505 133.893 75.5827 133.972 75.693C134.05 75.8033 134.162 75.8861 134.29 75.93Z" fill="white"/>
<path d="M70.23 40.91L75.06 38.13L73.18 37.05L68.36 39.83L70.23 40.91Z" fill="#FF2C9C"/>
<path d="M63.52 44.79L68.34 42.01L66.46 40.93L61.64 43.71L63.52 44.79Z" fill="white"/>
<path d="M91.77 28.36L96.6 25.58L94.72 24.49L89.9 27.28L91.77 28.36Z" fill="white"/>
<path d="M71.3099 43.72L78.0199 39.84L76.1499 38.76L69.4299 42.64L71.3099 43.72Z" fill="white"/>
<path d="M66.48 46.5L69.43 44.8L67.56 43.72L64.61 45.42L66.48 46.5Z" fill="#D4ECFF"/>
<path d="M115.64 53.19L121.16 49.96C121.462 49.8236 121.792 49.759 122.123 49.7711C122.455 49.7832 122.779 49.8719 123.07 50.03L128.34 53.03C128.91 53.36 128.98 53.85 128.49 54.14L122.97 57.36C122.668 57.4987 122.338 57.5646 122.007 57.5525C121.675 57.5403 121.351 57.4504 121.06 57.29L115.78 54.29C115.21 54 115.15 53.47 115.64 53.19Z" fill="#FF2C9C"/>
<path d="M106.01 58.81L111.53 55.58C111.832 55.4436 112.162 55.3789 112.493 55.3911C112.825 55.4032 113.149 55.4918 113.44 55.65L118.72 58.65C119.28 58.97 119.35 59.46 118.86 59.75L113.34 63C113.038 63.1387 112.708 63.2046 112.377 63.1925C112.045 63.1803 111.721 63.0904 111.43 62.93L106.15 59.93C105.58 59.59 105.52 59.09 106.01 58.81Z" fill="#B3E0FF"/>
<path d="M106.29 47.83L111.81 44.61C112.112 44.4736 112.442 44.409 112.773 44.4211C113.105 44.4333 113.429 44.5219 113.72 44.68L118.99 47.68C119.56 48.01 119.62 48.5 119.14 48.79L113.6 52C113.296 52.1365 112.965 52.2012 112.632 52.1891C112.299 52.177 111.973 52.0883 111.68 51.93L106.41 48.93C105.84 48.61 105.78 48.12 106.29 47.83Z" fill="white"/>
<path d="M96.64 53.46L102.16 50.23C102.462 50.0936 102.792 50.029 103.123 50.0411C103.455 50.0533 103.779 50.1419 104.07 50.3L109.34 53.3C109.91 53.62 109.98 54.11 109.49 54.4L103.97 57.62C103.668 57.7587 103.338 57.8246 103.007 57.8125C102.675 57.8003 102.351 57.7104 102.06 57.55L96.78 54.55C96.21 54.23 96.15 53.74 96.64 53.46Z" fill="#396CAA"/>
</svg>
