<svg width="157" height="120" viewBox="0 0 157 120" fill="none" xmlns="http://www.w3.org/2000/svg">
<g style="mix-blend-mode:multiply" opacity="0.3">
<g style="mix-blend-mode:multiply">
<g style="mix-blend-mode:multiply">
<path d="M0 29.126H156.23V119.323H0V29.126Z" fill="white"/>
</g>
<g style="mix-blend-mode:multiply">
<path d="M77.7471 109.966C41.3424 109.585 11.9981 93.2749 12.2048 73.5364C12.4115 53.7979 42.0909 38.1057 78.4957 38.4869C114.9 38.8682 144.245 55.1785 144.038 74.917C143.831 94.6555 114.152 110.348 77.7471 109.966Z" fill="white"/>
</g>
<g style="mix-blend-mode:multiply">
<path d="M77.7497 109.733C41.5898 109.354 12.4429 93.1541 12.6482 73.5491C12.8535 53.9442 42.3333 38.3582 78.4931 38.7369C114.653 39.1156 143.8 55.3155 143.595 74.9204C143.389 94.5254 113.909 110.111 77.7497 109.733Z" fill="white"/>
</g>
<g style="mix-blend-mode:multiply">
<path d="M77.7521 109.499C41.8327 109.123 12.8796 93.0295 13.0836 73.5536C13.2875 54.0778 42.5713 38.5945 78.4907 38.9706C114.41 39.3468 143.363 55.44 143.159 74.9158C142.955 94.3917 113.672 109.875 77.7521 109.499Z" fill="white"/>
</g>
<g style="mix-blend-mode:multiply">
<path d="M77.7546 109.257C42.0801 108.883 13.3244 92.9005 13.527 73.5583C13.7295 54.2161 42.8137 38.8389 78.4882 39.2125C114.163 39.5861 142.918 55.569 142.716 74.9112C142.513 94.2535 113.429 109.631 77.7546 109.257Z" fill="white"/>
</g>
<g style="mix-blend-mode:multiply">
<path d="M77.7571 109.015C42.323 108.644 13.7611 92.7679 13.9623 73.5548C14.1636 54.3417 43.0516 39.0672 78.4857 39.4383C113.92 39.8094 142.482 55.6855 142.28 74.8986C142.079 94.1117 113.191 109.386 77.7571 109.015Z" fill="white"/>
</g>
<g style="mix-blend-mode:multiply">
<path d="M77.7596 108.773C42.5705 108.405 14.206 92.639 14.4058 73.5595C14.6056 54.4799 43.294 39.3116 78.4832 39.6802C113.672 40.0487 142.037 55.8144 141.837 74.894C141.637 93.9735 112.949 109.142 77.7596 108.773Z" fill="white"/>
</g>
<g style="mix-blend-mode:multiply">
<path d="M77.7621 108.547C42.8133 108.181 14.6427 92.5224 14.8411 73.572C15.0396 54.6216 43.532 39.556 78.4807 39.922C113.429 40.288 141.6 55.947 141.402 74.8974C141.203 93.8478 112.711 108.913 77.7621 108.547Z" fill="white"/>
</g>
<g style="mix-blend-mode:multiply">
<path d="M77.7646 108.306C43.0608 107.942 15.0875 92.3935 15.2846 73.5767C15.4816 54.7599 43.7744 39.8004 78.4782 40.1638C113.182 40.5273 141.155 56.076 140.958 74.8928C140.761 93.7096 112.468 108.669 77.7646 108.306Z" fill="white"/>
</g>
<g style="mix-blend-mode:multiply">
<path d="M77.767 108.064C43.3037 107.703 15.5242 92.261 15.7199 73.5733C15.9156 54.8855 44.0124 40.0287 78.4758 40.3897C112.939 40.7506 140.719 56.1925 140.523 74.8802C140.327 93.5679 112.23 108.425 77.767 108.064Z" fill="white"/>
</g>
<g style="mix-blend-mode:multiply">
<path d="M77.7696 107.83C43.5511 107.472 15.969 92.14 16.1633 73.5859C16.3576 55.0318 44.2547 40.2812 78.4732 40.6395C112.692 40.9979 140.274 56.3295 140.079 74.8836C139.885 93.4377 111.988 108.188 77.7696 107.83Z" fill="white"/>
</g>
<g style="mix-blend-mode:multiply">
<path d="M77.7721 107.58C43.7941 107.224 16.4058 92.003 16.5987 73.5824C16.7916 55.1619 44.4926 40.5175 78.4707 40.8734C112.449 41.2292 139.837 56.4504 139.644 74.871C139.451 93.2915 111.75 107.936 77.7721 107.58Z" fill="white"/>
</g>
<g style="mix-blend-mode:multiply">
<path d="M77.7746 107.346C44.0414 106.993 16.8506 91.8784 17.0421 73.587C17.2337 55.2956 44.7351 40.7539 78.4682 41.1071C112.201 41.4604 139.392 56.5749 139.201 74.8663C139.009 93.1577 111.508 107.699 77.7746 107.346Z" fill="#FEFFFF"/>
</g>
<g style="mix-blend-mode:multiply">
<path d="M77.7771 107.104C44.2844 106.754 17.2873 91.7495 17.4775 73.5916C17.6676 55.4338 44.973 40.9983 78.4657 41.349C111.958 41.6998 138.955 56.704 138.765 74.8618C138.575 93.0197 111.27 107.455 77.7771 107.104Z" fill="#FEFFFF"/>
</g>
<g style="mix-blend-mode:multiply">
<path d="M77.7795 106.871C44.5317 106.522 17.7321 91.625 17.9209 73.5963C18.1097 55.5675 45.2154 41.2346 78.4633 41.5828C111.711 41.931 138.511 56.8284 138.322 74.8571C138.133 92.8859 111.027 107.219 77.7795 106.871Z" fill="#FEFEFF"/>
</g>
<g style="mix-blend-mode:multiply">
<path d="M77.7821 106.629C44.7747 106.283 18.1689 91.4959 18.3563 73.6008C18.5437 55.7057 45.4533 41.479 78.4607 41.8247C111.468 42.1703 138.074 56.9574 137.887 74.8526C137.699 92.7477 110.789 106.974 77.7821 106.629Z" fill="#FEFEFF"/>
</g>
<g style="mix-blend-mode:multiply">
<path d="M77.7845 106.403C45.022 106.06 18.6136 91.3795 18.7997 73.6135C18.9857 55.8475 45.6958 41.7235 78.4583 42.0666C111.221 42.4097 137.629 57.09 137.443 74.856C137.257 92.622 110.547 106.746 77.7845 106.403Z" fill="#FEFEFF"/>
</g>
<g style="mix-blend-mode:multiply">
<path d="M77.7871 106.161C45.265 105.821 19.0504 91.2505 19.235 73.6181C19.4197 55.9857 45.9337 41.9678 78.4557 42.3084C110.978 42.649 137.192 57.219 137.008 74.8515C136.823 92.4839 110.309 106.502 77.7871 106.161Z" fill="#FEFEFF"/>
</g>
<g style="mix-blend-mode:multiply">
<path d="M77.7895 105.919C45.5124 105.581 19.4952 91.118 19.6785 73.6146C19.8618 56.1113 46.1761 42.1961 78.4533 42.5341C110.73 42.8722 136.748 57.3354 136.564 74.8387C136.381 92.342 110.067 106.257 77.7895 105.919Z" fill="#FEFEFF"/>
</g>
<g style="mix-blend-mode:multiply">
<path d="M77.792 105.677C45.7553 105.342 19.9319 90.9889 20.1138 73.6192C20.2957 56.2495 46.4141 42.4405 78.4508 42.776C110.487 43.1115 136.311 57.4644 136.129 74.8342C135.947 92.2039 109.829 106.013 77.792 105.677Z" fill="#FDFEFE"/>
</g>
<g style="mix-blend-mode:multiply">
<path d="M77.7946 105.436C46.0028 105.103 20.3767 90.86 20.5572 73.6239C20.7377 56.3877 46.6564 42.685 78.4482 43.0179C110.24 43.3508 135.866 57.5934 135.686 74.8295C135.505 92.0657 109.586 105.768 77.7946 105.436Z" fill="#FDFEFE"/>
</g>
<g style="mix-blend-mode:multiply">
<path d="M77.797 105.21C46.2457 104.879 20.8134 90.7435 20.9926 73.6365C21.1718 56.5295 46.8944 42.9293 78.4458 43.2598C109.997 43.5902 135.429 57.726 135.25 74.833C135.071 91.9401 109.348 105.54 77.797 105.21Z" fill="#FDFEFE"/>
</g>
<g style="mix-blend-mode:multiply">
<path d="M77.7995 104.968C46.4931 104.64 21.2583 90.6146 21.436 73.6412C21.6138 56.6677 47.1368 43.1738 78.4432 43.5016C109.75 43.8295 134.985 57.855 134.807 74.8284C134.629 91.8019 109.106 105.296 77.7995 104.968Z" fill="#FDFDFE"/>
</g>
<g style="mix-blend-mode:multiply">
<path d="M77.802 104.734C46.7404 104.409 21.703 90.4901 21.8794 73.6458C22.0558 56.8015 47.3792 43.4102 78.4408 43.7355C109.502 44.0608 134.54 57.9795 134.363 74.8238C134.187 91.6681 108.864 105.059 77.802 104.734Z" fill="#FCFDFE"/>
</g>
<g style="mix-blend-mode:multiply">
<path d="M77.8045 104.484C46.9834 104.161 22.1398 90.353 22.3148 73.6423C22.4898 56.9315 47.6171 43.6465 78.4383 43.9692C109.259 44.292 134.103 58.1004 133.928 74.8111C133.753 91.5218 108.626 104.807 77.8045 104.484Z" fill="#FCFDFE"/>
</g>
<g style="mix-blend-mode:multiply">
<path d="M77.807 104.25C47.2307 103.93 22.5846 90.2285 22.7582 73.6469C22.9319 57.0653 47.8596 43.8828 78.4358 44.2031C109.012 44.5233 133.658 58.2249 133.485 74.8065C133.311 91.3881 108.383 104.571 77.807 104.25Z" fill="#FCFDFE"/>
</g>
<g style="mix-blend-mode:multiply">
<path d="M77.8095 104.017C47.4737 103.699 23.0213 90.1076 23.1936 73.6595C23.3658 57.2115 48.0975 44.1353 78.4333 44.453C108.769 44.7707 133.221 58.362 133.049 74.81C132.877 91.258 108.145 104.334 77.8095 104.017Z" fill="#FCFDFE"/>
</g>
<g style="mix-blend-mode:multiply">
<path d="M77.812 103.783C47.7211 103.468 23.4661 89.9831 23.637 73.6642C23.8079 57.3453 48.3399 44.3717 78.4308 44.6868C108.522 45.0019 132.777 58.4865 132.606 74.8054C132.435 91.1243 107.903 104.098 77.812 103.783Z" fill="#FBFDFE"/>
</g>
<g style="mix-blend-mode:multiply">
<path d="M77.8145 103.541C47.964 103.228 23.9029 89.8541 24.0724 73.6688C24.2419 57.4834 48.5778 44.6161 78.4283 44.9287C108.279 45.2413 132.34 58.6155 132.17 74.8008C132.001 90.9861 107.665 103.854 77.8145 103.541Z" fill="#FBFCFE"/>
</g>
<g style="mix-blend-mode:multiply">
<path d="M77.817 103.299C48.2115 102.989 24.3477 89.7252 24.5158 73.6734C24.6839 57.6217 48.8202 44.8605 78.4258 45.1706C108.031 45.4806 131.895 58.7444 131.727 74.7962C131.559 90.8479 107.423 103.609 77.817 103.299Z" fill="#FBFCFE"/>
</g>
<g style="mix-blend-mode:multiply">
<path d="M77.8195 103.065C48.4544 102.758 24.7844 89.6006 24.9511 73.6779C25.1179 57.7553 49.0582 45.0968 78.4233 45.4043C107.788 45.7118 131.458 58.869 131.292 74.7916C131.125 90.7142 107.185 103.373 77.8195 103.065Z" fill="#FAFCFE"/>
</g>
<g style="mix-blend-mode:multiply">
<path d="M77.822 102.815C48.7018 102.51 25.2292 89.4636 25.3946 73.6745C25.5599 57.8855 49.3006 45.3332 78.4208 45.6381C107.541 45.9431 131.014 58.9899 130.848 74.7789C130.683 90.5679 106.942 103.12 77.822 102.815Z" fill="#FAFCFD"/>
</g>
<g style="mix-blend-mode:multiply">
<path d="M77.8245 102.582C48.9447 102.279 25.6659 89.339 25.8299 73.6791C25.9939 58.0192 49.5386 45.5695 78.4183 45.8719C107.298 46.1744 130.577 59.1144 130.413 74.7743C130.249 90.4343 106.704 102.884 77.8245 102.582Z" fill="#FAFCFD"/>
</g>
<g style="mix-blend-mode:multiply">
<path d="M77.8791 102.421C49.2426 102.135 26.1541 89.3156 26.3093 73.7884C26.4646 58.2612 49.8049 45.9061 78.4414 46.1924C107.078 46.4788 130.166 59.2982 130.011 74.8254C129.856 90.3526 106.516 102.708 77.8791 102.421Z" fill="#F9FBFD"/>
</g>
<g style="mix-blend-mode:multiply">
<path d="M77.8294 102.114C49.435 101.817 26.5475 89.0935 26.7087 73.6963C26.8699 58.2991 50.0189 46.0583 78.4134 46.3556C106.808 46.653 129.695 59.3759 129.534 74.7732C129.373 90.1704 106.224 102.411 77.8294 102.114Z" fill="#F9FBFD"/>
</g>
<g style="mix-blend-mode:multiply">
<path d="M77.832 101.872C49.6824 101.577 26.9923 88.9646 27.1521 73.701C27.312 58.4374 50.2613 46.3027 78.4108 46.5975C106.56 46.8923 129.251 59.5049 129.091 74.7685C128.931 90.0322 105.982 102.167 77.832 101.872Z" fill="#F9FBFD"/>
</g>
<g style="mix-blend-mode:multiply">
<path d="M77.8344 101.638C49.9253 101.346 27.429 88.8401 27.5875 73.7056C27.746 58.5711 50.4993 46.5391 78.4084 46.8313C106.317 47.1236 128.814 59.6295 128.655 74.764C128.497 89.8985 105.744 101.93 77.8344 101.638Z" fill="#F8FBFD"/>
</g>
<g style="mix-blend-mode:multiply">
<path d="M77.8369 101.388C50.1727 101.099 27.8738 88.7031 28.0309 73.7022C28.188 58.7012 50.7416 46.7754 78.4058 47.0652C106.07 47.3549 128.369 59.7504 128.212 74.7513C128.055 89.7522 105.501 101.678 77.8369 101.388Z" fill="#F8FAFD"/>
</g>
<g style="mix-blend-mode:multiply">
<path d="M77.8394 101.154C50.4156 100.867 28.3105 88.5785 28.4663 73.7067C28.622 58.8349 50.9796 47.0117 78.4034 47.2989C105.827 47.5861 127.932 59.8749 127.777 74.7467C127.621 89.6185 105.263 101.442 77.8394 101.154Z" fill="#F7FAFD"/>
</g>
<g style="mix-blend-mode:multiply">
<path d="M77.8419 100.913C50.663 100.628 28.7553 88.4496 28.9097 73.7113C29.064 58.9731 51.222 47.2562 78.4009 47.5408C105.58 47.8254 127.487 60.0038 127.333 74.7421C127.179 89.4803 105.021 101.197 77.8419 100.913Z" fill="#F7FAFC"/>
</g>
<g style="mix-blend-mode:multiply">
<path d="M77.8445 100.671C50.906 100.389 29.1921 88.3205 29.345 73.7159C29.498 59.1113 51.4599 47.5005 78.3983 47.7827C105.337 48.0648 127.051 60.1329 126.898 74.7375C126.745 89.3421 104.783 100.953 77.8445 100.671Z" fill="#F6F9FC"/>
</g>
<g style="mix-blend-mode:multiply">
<path d="M77.8469 100.445C51.1534 100.165 29.6369 88.2041 29.7885 73.7286C29.9401 59.2531 51.7023 47.745 78.3959 48.0245C105.089 48.3041 126.606 60.2654 126.454 74.7409C126.303 89.2165 104.54 100.725 77.8469 100.445Z" fill="#F6F9FC"/>
</g>
<g style="mix-blend-mode:multiply">
<path d="M77.8494 100.203C51.3963 99.9261 30.0736 88.0751 30.2238 73.7332C30.374 59.3912 51.9402 47.9894 78.3933 48.2664C104.846 48.5434 126.169 60.3944 126.019 74.7364C125.869 89.0783 104.303 100.48 77.8494 100.203Z" fill="#F5F9FC"/>
</g>
<g style="mix-blend-mode:multiply">
<path d="M77.9029 100.051C51.6932 99.7888 30.5613 88.054 30.7035 73.8404C30.8456 59.6268 52.2079 48.3169 78.4176 48.579C104.627 48.8411 125.759 60.5759 125.617 74.7895C125.475 89.0031 104.113 100.313 77.9029 100.051Z" fill="#F5F8FC"/>
</g>
<g style="mix-blend-mode:multiply">
<path d="M77.8544 99.7194C51.8867 99.4474 30.9552 87.8135 31.1026 73.7343C31.25 59.6551 52.4206 48.462 78.3884 48.734C104.356 49.0059 125.288 60.6399 125.14 74.7191C124.993 88.7983 103.822 99.9913 77.8544 99.7194Z" fill="#F4F8FC"/>
</g>
<g style="mix-blend-mode:multiply">
<path d="M77.8569 99.4856C52.134 99.2162 31.3999 87.6891 31.546 73.739C31.6921 59.7889 52.6631 48.6984 78.3859 48.9678C104.109 49.2372 124.843 60.7644 124.697 74.7145C124.551 88.6646 103.58 99.755 77.8569 99.4856Z" fill="#F4F8FC"/>
</g>
<g style="mix-blend-mode:multiply">
<path d="M77.8594 99.2437C52.377 98.9769 31.8367 87.56 31.9814 73.7435C32.1261 59.927 52.901 48.9428 78.3834 49.2097C103.866 49.4765 124.406 60.8934 124.261 74.7099C124.117 88.5264 103.342 99.5106 77.8594 99.2437Z" fill="#F3F7FB"/>
</g>
<g style="mix-blend-mode:multiply">
<path d="M77.8619 99.018C52.6243 98.7537 32.2815 87.4436 32.4248 73.7562C32.5682 60.0688 53.1434 49.1873 78.3809 49.4516C103.618 49.7159 123.961 61.0259 123.818 74.7133C123.675 88.4007 103.099 99.2823 77.8619 99.018Z" fill="#F3F7FB"/>
</g>
<g style="mix-blend-mode:multiply">
<path d="M77.8644 98.7762C52.8673 98.5144 32.7182 87.3146 32.8602 73.7608C33.0021 60.207 53.3813 49.4316 78.3784 49.6934C103.375 49.9552 123.525 61.155 123.383 74.7088C123.241 88.2626 102.861 99.0379 77.8644 98.7762Z" fill="#F2F7FB"/>
</g>
<g style="mix-blend-mode:multiply">
<path d="M77.8669 98.5343C53.1147 98.2751 33.163 87.1857 33.3036 73.7655C33.4441 60.3452 53.6237 49.6761 78.3759 49.9353C103.128 50.1945 123.08 61.2839 122.939 74.7042C122.799 88.1244 102.619 98.7935 77.8669 98.5343Z" fill="#F2F6FB"/>
</g>
<g style="mix-blend-mode:multiply">
<path d="M77.8694 98.2924C53.3576 98.0357 33.5998 87.053 33.7389 73.7619C33.8781 60.4708 53.8617 49.9043 78.3734 50.161C102.885 50.4177 122.643 61.4004 122.504 74.6915C122.365 87.9826 102.381 98.5491 77.8694 98.2924Z" fill="#F1F6FB"/>
</g>
<g style="mix-blend-mode:multiply">
<path d="M77.8719 98.0505C53.6051 97.7964 34.0446 86.9241 34.1824 73.7666C34.3202 60.609 54.104 50.1488 78.3709 50.4029C102.638 50.657 122.198 61.5293 122.06 74.6869C121.923 87.8444 102.139 98.3047 77.8719 98.0505Z" fill="#F0F5FB"/>
</g>
<g style="mix-blend-mode:multiply">
<path d="M77.8744 97.8167C53.8479 97.5651 34.4813 86.7995 34.6177 73.7711C34.7542 60.7427 54.342 50.3851 78.3684 50.6367C102.395 50.8883 121.762 61.6539 121.625 74.6823C121.489 87.7107 101.901 98.0683 77.8744 97.8167Z" fill="#F0F5FA"/>
</g>
<g style="mix-blend-mode:multiply">
<path d="M77.8769 97.5749C54.0954 97.3258 34.9261 86.6706 35.0612 73.7758C35.1962 60.881 54.5844 50.6295 78.3659 50.8786C102.147 51.1276 121.317 61.7829 121.182 74.6777C121.047 87.5725 101.658 97.8239 77.8769 97.5749Z" fill="#EFF5FA"/>
</g>
<g style="mix-blend-mode:multiply">
<path d="M77.8793 97.341C54.3383 97.0945 35.3628 86.546 35.4965 73.7803C35.6302 61.0146 54.8224 50.8658 78.3635 51.1123C101.905 51.3589 120.88 61.9074 120.746 74.6731C120.613 87.4388 101.42 97.5876 77.8793 97.341Z" fill="#EEF4FA"/>
</g>
<g style="mix-blend-mode:multiply">
<path d="M77.8819 97.1072C54.5857 96.8633 35.8076 86.4251 35.9399 73.793C36.0722 61.1609 55.0647 51.1183 78.3609 51.3623C101.657 51.6062 120.435 62.0444 120.303 74.6765C120.171 87.3086 101.178 97.3512 77.8819 97.1072Z" fill="#EEF4FA"/>
</g>
<g style="mix-blend-mode:multiply">
<path d="M77.8843 96.8734C54.8286 96.632 36.2444 86.3006 36.3753 73.7976C36.5062 61.2946 55.3027 51.3546 78.3585 51.5961C101.414 51.8375 119.998 62.1689 119.868 74.6719C119.737 87.1749 100.94 97.1149 77.8843 96.8734Z" fill="#EDF3F9"/>
</g>
<g style="mix-blend-mode:multiply">
<path d="M77.8868 96.6235C55.076 96.3847 36.6892 86.1636 36.8187 73.7942C36.9482 61.4248 55.5451 51.591 78.3559 51.8299C101.167 52.0688 119.554 62.2898 119.424 74.6593C119.295 87.0287 100.698 96.8624 77.8868 96.6235Z" fill="#ECF3F9"/>
</g>
<g style="mix-blend-mode:multiply">
<path d="M77.8894 96.3817C55.319 96.1453 37.1259 86.0346 37.2541 73.7987C37.3822 61.5629 55.783 51.8354 78.3534 52.0718C100.924 52.3081 119.117 62.4189 118.989 74.6547C118.861 86.8905 100.46 96.618 77.8894 96.3817Z" fill="#ECF2F9"/>
</g>
<g style="mix-blend-mode:multiply">
<path d="M77.8918 96.1478C55.5663 95.914 37.5707 85.9101 37.6975 73.8034C37.8243 61.6966 56.0255 52.0717 78.351 52.3055C100.676 52.5393 118.672 62.5433 118.545 74.65C118.419 86.7567 100.217 96.3816 77.8918 96.1478Z" fill="#EBF2F9"/>
</g>
<g style="mix-blend-mode:multiply">
<path d="M77.8944 95.914C55.8093 95.6827 38.0075 85.7891 38.1328 73.816C38.2582 61.8428 56.2634 52.3242 78.3484 52.5555C100.433 52.7868 118.235 62.6804 118.11 74.6535C117.985 86.6267 99.9794 96.1453 77.8944 95.914Z" fill="#EAF1F9"/>
</g>
<g style="mix-blend-mode:multiply">
<path d="M77.8968 95.6802C56.0566 95.4515 38.4522 85.6646 38.5763 73.8206C38.7003 61.9766 56.5058 52.5606 78.346 52.7893C100.186 53.018 117.791 62.8049 117.667 74.6489C117.542 86.4929 99.737 95.909 77.8968 95.6802Z" fill="#E9F1F8"/>
</g>
<g style="mix-blend-mode:multiply">
<path d="M77.8993 95.4384C56.2996 95.2122 38.889 85.5356 39.0116 73.8252C39.1343 62.1148 56.7437 52.805 78.3434 53.0312C99.9432 53.2574 117.354 62.9339 117.231 74.6443C117.109 86.3548 99.4991 95.6646 77.8993 95.4384Z" fill="#E9F0F8"/>
</g>
<g style="mix-blend-mode:multiply">
<path d="M77.9018 95.1965C56.547 94.9729 39.3338 85.4031 39.4551 73.8218C39.5763 62.2405 56.9862 53.0333 78.341 53.2569C99.6958 53.4806 116.909 63.0504 116.788 74.6317C116.666 86.213 99.2566 95.4202 77.9018 95.1965Z" fill="#E8F0F8"/>
</g>
<g style="mix-blend-mode:multiply">
<path d="M77.9043 94.9546C56.7899 94.7335 39.7705 85.274 39.8904 73.8263C40.0103 62.3786 57.2241 53.2776 78.3385 53.4987C99.4529 53.7199 116.472 63.1793 116.352 74.627C116.233 86.0748 99.0187 95.1757 77.9043 94.9546Z" fill="#E7EFF8"/>
</g>
<g style="mix-blend-mode:multiply">
<path d="M77.9068 94.7289C57.0373 94.5103 40.2153 85.1576 40.3338 73.839C40.4524 62.5204 57.4665 53.5221 78.336 53.7406C99.2055 53.9592 116.028 63.3119 115.909 74.6305C115.79 85.9491 98.7763 94.9474 77.9068 94.7289Z" fill="#E6EFF7"/>
</g>
<g style="mix-blend-mode:multiply">
<path d="M77.9093 94.487C57.2803 94.271 40.6521 85.0286 40.7692 73.8436C40.8863 62.6586 57.7044 53.7665 78.3335 53.9825C98.9625 54.1985 115.591 63.4409 115.474 74.6259C115.356 85.8109 98.5384 94.7031 77.9093 94.487Z" fill="#E5EEF7"/>
</g>
<g style="mix-blend-mode:multiply">
<path d="M77.9601 94.3264C57.5748 94.1226 41.1389 84.9979 41.2494 73.9458C41.3599 62.8938 57.9751 54.0996 78.3603 54.3034C98.7456 54.5073 115.182 63.632 115.071 74.684C114.961 85.7361 98.3454 94.5303 77.9601 94.3264Z" fill="#E5EEF7"/>
</g>
<g style="mix-blend-mode:multiply">
<path d="M77.9143 94.0114C57.7706 93.8004 41.5336 84.7751 41.648 73.8528C41.7624 62.9305 58.1848 54.2472 78.3285 54.4582C98.4722 54.6691 114.709 63.6944 114.595 74.6167C114.48 85.5391 98.058 94.2223 77.9143 94.0114Z" fill="#E4EDF7"/>
</g>
<g style="mix-blend-mode:multiply">
<path d="M77.9168 93.7695C58.018 93.5611 41.9784 84.6462 42.0914 73.8575C42.2044 63.0687 58.4271 54.4917 78.326 54.7001C98.2248 54.9085 114.264 63.8234 114.151 74.6121C114.038 85.4009 97.8156 93.9779 77.9168 93.7695Z" fill="#E3EDF6"/>
</g>
<g style="mix-blend-mode:multiply">
<path d="M77.9193 93.5276C58.2609 93.3217 42.4151 84.5135 42.5268 73.8539C42.6384 63.1943 58.6651 54.7199 78.3235 54.9258C97.9819 55.1316 113.828 63.9398 113.716 74.5994C113.604 85.2591 97.5777 93.7335 77.9193 93.5276Z" fill="#E2ECF6"/>
</g>
<g style="mix-blend-mode:multiply">
<path d="M77.9218 93.2858C58.5083 93.0825 42.8599 84.3846 42.9702 73.8586C43.0804 63.3326 58.9075 54.9643 78.321 55.1677C97.7345 55.371 113.383 64.0688 113.273 74.5948C113.162 85.1209 97.3353 93.4891 77.9218 93.2858Z" fill="#E1EBF6"/>
</g>
<g style="mix-blend-mode:multiply">
<path d="M77.9243 93.052C58.7512 92.8512 43.2967 84.2601 43.4055 73.8632C43.5144 63.4663 59.1455 55.2007 78.3185 55.4015C97.4916 55.6022 112.946 64.1934 112.837 74.5903C112.728 84.9872 97.0973 93.2528 77.9243 93.052Z" fill="#E0EBF6"/>
</g>
<g style="mix-blend-mode:multiply">
<path d="M77.9268 92.8182C58.9986 92.62 43.7415 84.1392 43.8489 73.8759C43.9564 63.6126 59.3879 55.4532 78.316 55.6514C97.2442 55.8496 112.501 64.3304 112.394 74.5937C112.286 84.857 96.8549 93.0164 77.9268 92.8182Z" fill="#DFEAF5"/>
</g>
<g style="mix-blend-mode:multiply">
<path d="M77.9292 92.5843C59.2415 92.3886 44.1782 84.0146 44.2843 73.8804C44.3904 63.7462 59.6259 55.6894 78.3136 55.8851C97.0013 56.0809 112.065 64.4549 111.958 74.5891C111.852 84.7233 96.6169 92.78 77.9292 92.5843Z" fill="#DEEAF5"/>
</g>
<g style="mix-blend-mode:multiply">
<path d="M77.9318 92.3425C59.4889 92.1494 44.623 83.8857 44.7277 73.8851C44.8325 63.8845 59.8682 55.934 78.311 56.1271C96.7538 56.3202 111.62 64.5839 111.515 74.5845C111.41 84.5851 96.3746 92.5357 77.9318 92.3425Z" fill="#DDE9F5"/>
</g>
<g style="mix-blend-mode:multiply">
<path d="M77.9343 92.1006C59.7319 91.91 45.0598 83.7566 45.1631 73.8896C45.2664 64.0226 60.1061 56.1783 78.3085 56.3689C96.5109 56.5595 111.183 64.7129 111.08 74.5799C110.976 84.4469 96.1367 92.2912 77.9343 92.1006Z" fill="#DCE8F4"/>
</g>
<g style="mix-blend-mode:multiply">
<path d="M77.9839 91.9399C60.0254 91.7603 45.5462 83.7202 45.6436 73.9817C45.7409 64.2433 60.3781 56.4943 78.3366 56.6739C96.295 56.8534 110.774 64.8936 110.677 74.632C110.58 84.3705 95.9424 92.1195 77.9839 91.9399Z" fill="#DBE8F4"/>
</g>
<g style="mix-blend-mode:multiply">
<path d="M77.9393 91.6169C60.2222 91.4314 45.9413 83.4951 46.0419 73.8908C46.1425 64.2864 60.5865 56.651 78.3035 56.8365C96.0205 57.0221 110.302 64.9583 110.201 74.5627C110.1 84.167 95.6563 91.8024 77.9393 91.6169Z" fill="#DAE7F4"/>
</g>
<g style="mix-blend-mode:multiply">
<path d="M77.9417 91.3831C60.4696 91.2001 46.3861 83.3706 46.4853 73.8954C46.5845 64.4202 60.8289 56.8873 78.3011 57.0703C95.7732 57.2533 109.857 65.0828 109.757 74.558C109.658 84.0332 95.4139 91.566 77.9417 91.3831Z" fill="#D9E6F3"/>
</g>
<g style="mix-blend-mode:multiply">
<path d="M77.9443 91.1492C60.7126 90.9688 46.8228 83.2496 46.9207 73.908C47.0185 64.5664 61.0668 57.1398 78.2985 57.3202C95.5302 57.5007 109.42 65.2199 109.322 74.5615C109.224 83.9031 95.176 91.3297 77.9443 91.1492Z" fill="#D8E6F3"/>
</g>
<g style="mix-blend-mode:multiply">
<path d="M77.9467 90.9155C60.9599 90.7376 47.2676 83.1252 47.3641 73.9127C47.4605 64.7002 61.3093 57.3762 78.2961 57.5541C95.2829 57.7319 108.975 65.3444 108.879 74.5569C108.782 83.7694 94.9335 91.0934 77.9467 90.9155Z" fill="#D7E5F3"/>
</g>
<g style="mix-blend-mode:multiply">
<path d="M77.9492 90.6736C61.2029 90.4982 47.7044 82.9961 47.7994 73.9172C47.8945 64.8383 61.5472 57.6205 78.2935 57.7959C95.0399 57.9713 108.538 65.4734 108.443 74.5523C108.348 83.6312 94.6956 90.849 77.9492 90.6736Z" fill="#D6E4F2"/>
</g>
<g style="mix-blend-mode:multiply">
<path d="M77.9517 90.4318C61.4502 90.259 48.1491 82.8636 48.2429 73.9138C48.3366 64.964 61.7896 57.8489 78.2911 58.0217C94.7926 58.1945 108.094 65.5898 108 74.5396C107.906 83.4894 94.4532 90.6046 77.9517 90.4318Z" fill="#D5E4F2"/>
</g>
<g style="mix-blend-mode:multiply">
<path d="M77.9542 90.1898C61.6932 90.0196 48.5859 82.7345 48.6782 73.9183C48.7705 65.1021 62.0275 58.0932 78.2886 58.2635C94.5496 58.4338 107.657 65.7188 107.565 74.535C107.472 83.3512 94.2152 90.3601 77.9542 90.1898Z" fill="#D4E3F2"/>
</g>
<g style="mix-blend-mode:multiply">
<path d="M77.9567 89.9561C61.9405 89.7883 49.0307 82.6101 49.1216 73.923C49.2126 65.2359 62.27 58.3296 78.2861 58.4973C94.3022 58.6651 107.212 65.8433 107.121 74.5304C107.03 83.2175 93.9728 90.1238 77.9567 89.9561Z" fill="#D3E2F1"/>
</g>
<g style="mix-blend-mode:multiply">
<path d="M77.9592 89.7223C62.1835 89.557 49.4674 82.4891 49.557 73.9356C49.6466 65.3821 62.5079 58.582 78.2836 58.7473C94.0593 58.9125 106.775 65.9804 106.686 74.5339C106.596 83.0874 93.7349 89.8875 77.9592 89.7223Z" fill="#D2E1F1"/>
</g>
<g style="mix-blend-mode:multiply">
<path d="M77.9617 89.4804C62.4309 89.3178 49.9122 82.3602 50.0004 73.9403C50.0886 65.5203 62.7503 58.8265 78.2811 58.9891C93.8118 59.1518 106.331 66.1093 106.242 74.5293C106.154 82.9492 93.4925 89.6431 77.9617 89.4804Z" fill="#D0E1F1"/>
</g>
<g style="mix-blend-mode:multiply">
<path d="M77.9642 89.2466C62.6738 89.0865 50.3489 82.2356 50.4358 73.9448C50.5226 65.654 62.9883 59.0628 78.2786 59.2229C93.5689 59.3831 105.894 66.2339 105.807 74.5247C105.72 82.8155 93.2545 89.4067 77.9642 89.2466Z" fill="#CFE0F0"/>
</g>
<g style="mix-blend-mode:multiply">
<path d="M77.9667 88.9967C62.9213 88.8391 50.7938 82.0987 50.8792 73.9414C50.9646 65.7842 63.2306 59.2992 78.2761 59.4568C93.3215 59.6143 105.449 66.3548 105.364 74.512C105.278 82.6693 93.0122 89.1543 77.9667 88.9967Z" fill="#CEDFF0"/>
</g>
<g style="mix-blend-mode:multiply">
<path d="M77.9692 88.7628C63.1642 88.6078 51.2305 81.974 51.3146 73.946C51.3986 65.9179 63.4686 59.5355 78.2736 59.6905C93.0786 59.8456 105.012 66.4793 104.928 74.5074C104.844 82.5355 92.7742 88.9179 77.9692 88.7628Z" fill="#CDDEF0"/>
</g>
<g style="mix-blend-mode:multiply">
<path d="M77.9717 88.521C63.4116 88.3685 51.6753 81.8451 51.758 73.9506C51.8407 66.0561 63.711 59.7799 78.2711 59.9324C92.8312 60.0849 104.567 66.6083 104.485 74.5028C104.402 82.3973 92.5318 88.6735 77.9717 88.521Z" fill="#CCDEEF"/>
</g>
<g style="mix-blend-mode:multiply">
<path d="M77.9741 88.2872C63.6545 88.1372 52.112 81.7206 52.1933 73.9552C52.2747 66.1898 63.949 60.0163 78.2686 60.1662C92.5883 60.3162 104.131 66.7328 104.049 74.4982C103.968 82.2636 92.2938 88.4372 77.9741 88.2872Z" fill="#CBDDEF"/>
</g>
<g style="mix-blend-mode:multiply">
<path d="M77.9767 88.0453C63.9019 87.898 52.5568 81.5917 52.6368 73.9598C52.7167 66.328 64.1913 60.2607 78.2661 60.4081C92.3409 60.5555 103.686 66.8618 103.606 74.4936C103.526 82.1254 92.0515 88.1927 77.9767 88.0453Z" fill="#C9DCEF"/>
</g>
<g style="mix-blend-mode:multiply">
<path d="M77.9791 87.8115C64.1448 87.6666 52.9935 81.467 53.0721 73.9643C53.1507 66.4617 64.4293 60.497 78.2637 60.6418C92.098 60.7867 103.249 66.9863 103.171 74.489C103.092 81.9917 91.8135 87.9564 77.9791 87.8115Z" fill="#C8DBEE"/>
</g>
<g style="mix-blend-mode:multiply">
<path d="M78.0268 87.6587C64.4366 87.5227 53.4793 81.4384 53.553 74.0689C53.6267 66.6994 64.7035 60.8354 78.2937 60.9713C91.8839 61.1072 102.841 67.1915 102.767 74.561C102.694 81.9305 91.617 87.7946 78.0268 87.6587Z" fill="#C7DAEE"/>
</g>
<g style="mix-blend-mode:multiply">
<path d="M77.9842 87.3278C64.6352 87.188 53.8751 81.2091 53.9509 73.9736C54.0267 66.738 64.9096 60.9858 78.2586 61.1256C91.6076 61.2654 102.368 67.2443 102.292 74.4798C102.216 81.7153 91.3332 87.4676 77.9842 87.3278Z" fill="#C5D9ED"/>
</g>
<g style="mix-blend-mode:multiply">
<path d="M77.9867 87.094C64.8826 86.9568 54.3199 81.0846 54.3943 73.9782C54.4688 66.8718 65.1521 61.2222 78.2562 61.3594C91.3603 61.4967 101.923 67.3688 101.848 74.4752C101.774 81.5816 91.0908 87.2312 77.9867 87.094Z" fill="#C4D9ED"/>
</g>
<g style="mix-blend-mode:multiply">
<path d="M78.034 86.941C65.1696 86.8124 54.7975 81.0552 54.8672 74.082C54.937 67.1088 65.4221 61.5602 78.2865 61.6888C91.1509 61.8175 101.523 67.5747 101.453 74.5479C101.383 81.5211 90.8983 87.0697 78.034 86.941Z" fill="#C3D8ED"/>
</g>
<g style="mix-blend-mode:multiply">
<path d="M77.9916 86.6264C65.3729 86.4943 55.2014 80.8392 55.2731 73.9955C55.3448 67.1518 65.6324 61.711 78.2512 61.8432C90.8699 61.9753 101.041 67.6304 100.97 74.4741C100.898 81.3178 90.6104 86.7586 77.9916 86.6264Z" fill="#C2D7EC"/>
</g>
<g style="mix-blend-mode:multiply">
<path d="M78.0387 86.4654C65.6597 86.3416 55.679 80.8013 55.7461 74.0908C55.8132 67.3803 65.9027 62.0407 78.2817 62.1645C90.6607 62.2883 100.642 67.8286 100.574 74.5391C100.507 81.2496 90.4177 86.5892 78.0387 86.4654Z" fill="#C0D6EC"/>
</g>
<g style="mix-blend-mode:multiply">
<path d="M100.106 74.4542C100.033 81.0333 90.1404 86.266 78.0062 86.137C65.8719 86.008 56.0919 80.5737 56.1644 73.9946C56.237 67.4155 66.1218 62.1828 78.2561 62.3118C90.3904 62.4408 100.154 67.867 100.106 74.4542Z" fill="#BFD5EB"/>
</g>
<g style="mix-blend-mode:multiply">
<path d="M77.9991 85.9088C66.1062 85.7843 56.5197 80.4567 56.5872 74.0092C56.6548 67.5618 66.3507 62.4361 78.2437 62.5607C90.1366 62.6852 99.7231 68.0129 99.6556 74.4603C99.588 80.9077 89.8921 86.0334 77.9991 85.9088Z" fill="#BDD4EB"/>
</g>
<g style="mix-blend-mode:multiply">
<path d="M78.0016 85.667C66.3535 85.545 56.9645 80.3241 57.0307 74.0059C57.0968 67.6876 66.5931 62.6645 78.2412 62.7865C89.8893 62.9084 99.2783 68.1293 99.2121 74.4476C99.146 80.7659 89.6497 85.789 78.0016 85.667Z" fill="#BCD3EA"/>
</g>
<g style="mix-blend-mode:multiply">
<path d="M78.0041 85.4251C66.5965 85.3057 57.4013 80.1951 57.466 74.0104C57.5308 67.8257 66.831 62.9089 78.2387 63.0283C89.6463 63.1478 98.8416 68.2583 98.7768 74.443C98.712 80.6277 89.4118 85.5446 78.0041 85.4251Z" fill="#BBD2EA"/>
</g>
<g style="mix-blend-mode:multiply">
<path d="M78.0067 85.1913C66.8439 85.0744 57.8461 80.0743 57.9095 74.0231C57.9728 67.972 67.0734 63.1614 78.2361 63.2783C89.3989 63.3952 98.3967 68.3953 98.3334 74.4465C98.27 80.4976 89.1694 85.3082 78.0067 85.1913Z" fill="#B9D1EA"/>
</g>
<g style="mix-blend-mode:multiply">
<path d="M78.0091 84.9575C67.0868 84.8431 58.2828 79.9496 58.3448 74.0276C58.4068 68.1056 67.3114 63.3976 78.2337 63.512C89.156 63.6264 97.96 68.5199 97.898 74.4419C97.836 80.3639 88.9314 85.0719 78.0091 84.9575Z" fill="#B8D0E9"/>
</g>
<g style="mix-blend-mode:multiply">
<path d="M78.0116 84.7156C67.3342 84.6038 58.7276 79.8207 58.7882 74.0323C58.8489 68.2439 67.5537 63.6421 78.2312 63.7539C88.9086 63.8657 97.5152 68.6488 97.4546 74.4372C97.394 80.2257 88.6891 84.8275 78.0116 84.7156Z" fill="#B6D0E9"/>
</g>
<g style="mix-blend-mode:multiply">
<path d="M97.0098 74.422C96.9534 80.0658 88.4473 84.5809 78.0062 84.468C67.565 84.3551 59.1637 79.6869 59.2202 73.9866C59.2766 68.2863 67.7908 63.8276 78.2239 63.9405C88.6569 64.0534 97.0743 68.762 97.0098 74.422Z" fill="#B5CFE8"/>
</g>
<g style="mix-blend-mode:multiply">
<path d="M78.0166 84.2319C67.8245 84.1252 59.6091 79.5592 59.667 74.0335C59.7249 68.5078 68.0341 64.1148 78.2262 64.2215C88.4183 64.3283 96.6337 68.8943 96.5758 74.42C96.5179 79.9457 88.2087 84.3387 78.0166 84.2319Z" fill="#B3CEE8"/>
</g>
<g style="mix-blend-mode:multiply">
<path d="M78.0191 83.9981C68.0674 83.8939 60.0459 79.4346 60.1024 74.038C60.1589 68.6414 68.2721 64.3511 78.2237 64.4553C88.1754 64.5595 96.197 69.0188 96.1404 74.4154C96.0839 79.812 87.9707 84.1023 78.0191 83.9981Z" fill="#B2CDE7"/>
</g>
<g style="mix-blend-mode:multiply">
<path d="M78.0216 83.7562C68.3149 83.6546 60.4907 79.3057 60.5458 74.0426C60.6009 68.7796 68.5145 64.5955 78.2212 64.6972C87.9279 64.7988 95.7521 69.1477 95.697 74.4108C95.6419 79.6738 87.7283 83.8579 78.0216 83.7562Z" fill="#B0CCE7"/>
</g>
<g style="mix-blend-mode:multiply">
<path d="M78.0241 83.5305C68.5578 83.4313 60.9274 79.1891 60.9811 74.0553C61.0349 68.9214 68.7524 64.8399 78.2187 64.939C87.685 65.0382 95.3154 69.2804 95.2617 74.4143C95.2079 79.5481 87.4904 83.6296 78.0241 83.5305Z" fill="#AFCBE6"/>
</g>
<g style="mix-blend-mode:multiply">
<path d="M78.0266 83.2886C68.8052 83.1921 61.3722 79.0602 61.4246 74.0599C61.4769 69.0596 68.9948 65.0843 78.2162 65.1809C87.4376 65.2775 94.8706 69.4093 94.8182 74.4096C94.7659 79.4099 87.248 83.3852 78.0266 83.2886Z" fill="#ADCAE6"/>
</g>
<g style="mix-blend-mode:multiply">
<path d="M78.0291 83.0468C69.0482 82.9527 61.809 78.9312 61.8599 74.0645C61.9109 69.1978 69.2327 65.3287 78.2137 65.4228C87.1947 65.5168 94.4338 69.5383 94.3829 74.4051C94.3319 79.2718 87.0101 83.1408 78.0291 83.0468Z" fill="#ACC9E5"/>
</g>
<g style="mix-blend-mode:multiply">
<path d="M93.938 74.3897C93.8896 79.1306 86.7622 82.8958 78.0303 82.7991C69.2985 82.7023 62.2517 78.7677 62.3001 74.0592C62.3485 69.3506 69.4678 65.5531 78.2077 65.6498C86.9476 65.7466 93.9863 69.657 93.938 74.3897Z" fill="#AAC8E5"/>
</g>
<g style="mix-blend-mode:multiply">
<path d="M78.0341 82.563C69.5385 82.474 62.6905 78.6696 62.7387 74.0656C62.7869 69.4616 69.7131 65.8014 78.2087 65.8904C86.7043 65.9793 93.5523 69.7837 93.5041 74.3878C93.4559 78.9918 86.5297 82.652 78.0341 82.563Z" fill="#A9C7E5"/>
</g>
<g style="mix-blend-mode:multiply">
<path d="M78.0365 82.3292C69.7858 82.2428 63.1353 78.5452 63.1821 74.0703C63.229 69.5954 69.9555 66.0378 78.2063 66.1242C86.457 66.2106 93.1075 69.9083 93.0607 74.3832C93.0138 78.8581 86.2873 82.4156 78.0365 82.3292Z" fill="#A7C6E4"/>
</g>
<g style="mix-blend-mode:multiply">
<path d="M78.0391 82.0874C70.0288 82.0035 63.572 78.4161 63.6175 74.0748C63.663 69.7335 70.1934 66.2822 78.2037 66.3661C86.214 66.4499 92.6708 70.0373 92.6253 74.3786C92.5799 78.7199 86.0494 82.1712 78.0391 82.0874Z" fill="#A5C4E4"/>
</g>
<g style="mix-blend-mode:multiply">
<path d="M78.0415 81.8616C70.2761 81.7803 64.0168 78.2997 64.0609 74.0875C64.105 69.8754 70.4359 66.5266 78.2013 66.6079C85.9667 66.6893 92.226 70.1698 92.1819 74.382C92.1378 78.5942 85.8069 81.943 78.0415 81.8616Z" fill="#A4C3E3"/>
</g>
<g style="mix-blend-mode:multiply">
<path d="M78.0441 81.6198C70.5191 81.541 64.4536 78.1707 64.4963 74.0921C64.539 70.0135 70.6738 66.771 78.1987 66.8498C85.7237 66.9286 91.7893 70.2989 91.7465 74.3775C91.7038 78.4561 85.569 81.6986 78.0441 81.6198Z" fill="#A2C2E3"/>
</g>
<g style="mix-blend-mode:multiply">
<path d="M78.0465 81.3859C70.7665 81.3097 64.8983 78.0462 64.9397 74.0967C64.9811 70.1472 70.9162 67.0073 78.1963 67.0836C85.4763 67.1598 91.3445 70.4233 91.3031 74.3728C91.2618 78.3223 85.3266 81.4622 78.0465 81.3859Z" fill="#A0C1E2"/>
</g>
<g style="mix-blend-mode:multiply">
<path d="M90.858 74.3574C90.8177 78.171 85.0852 81.2107 78.0465 81.1381C71.0078 81.0655 65.3317 77.913 65.372 74.0913C65.4123 70.2696 71.1529 67.2381 78.1916 67.3187C85.2303 67.3993 90.8983 70.5438 90.858 74.3574Z" fill="#9FC0E1"/>
</g>
<g style="mix-blend-mode:multiply">
<path d="M78.0516 80.8942C71.2569 80.823 65.7799 77.7802 65.8185 74.0979C65.857 70.4155 71.3965 67.4881 78.1912 67.5593C84.9859 67.6304 90.4629 70.6732 90.4243 74.3556C90.3858 78.0379 84.8463 80.9653 78.0516 80.8942Z" fill="#9DBFE1"/>
</g>
<g style="mix-blend-mode:multiply">
<path d="M78.054 80.6604C71.4997 80.5917 66.2166 77.6556 66.2538 74.1024C66.291 70.5492 71.6345 67.7244 78.1888 67.7931C84.743 67.8617 90.0262 70.7978 89.989 74.351C89.9517 77.9042 84.6083 80.729 78.054 80.6604Z" fill="#9BBEE0"/>
</g>
<g style="mix-blend-mode:multiply">
<path d="M78.0566 80.4266C71.7472 80.3605 66.6614 77.5348 66.6972 74.1152C66.7331 70.6955 71.8769 67.9769 78.1862 68.043C84.4956 68.1091 89.5814 70.9348 89.5455 74.3544C89.5097 77.7741 84.3659 80.4927 78.0566 80.4266Z" fill="#9ABDE0"/>
</g>
<g style="mix-blend-mode:multiply">
<path d="M78.059 80.1927C71.9901 80.1292 67.0982 77.4102 67.1326 74.1197C67.1671 70.8292 72.1148 68.2132 78.1838 68.2768C84.2527 68.3403 89.1446 71.0593 89.1102 74.3498C89.0757 77.6403 84.1279 80.2563 78.059 80.1927Z" fill="#98BCDF"/>
</g>
<g style="mix-blend-mode:multiply">
<path d="M88.665 74.3172C88.665 77.4777 83.8838 79.961 78.0545 79.961C72.2252 79.961 67.5731 77.2923 67.5731 74.1317C67.5731 70.9711 72.3542 68.4879 78.1755 68.4879C83.9967 68.4879 88.6972 71.1808 88.665 74.3172Z" fill="#96BADF"/>
</g>
<g style="mix-blend-mode:multiply">
<path d="M78.1054 79.7895C72.5215 79.7337 68.0194 77.2338 68.0497 74.2058C68.0799 71.1779 72.6311 68.7685 78.2151 68.8243C83.799 68.8801 88.3011 71.3801 88.2708 74.408C88.2405 77.436 83.6893 79.8454 78.1054 79.7895Z" fill="#94B9DE"/>
</g>
<g style="mix-blend-mode:multiply">
<path d="M78.0665 79.4672C72.7278 79.4113 68.4245 77.0197 68.4548 74.1255C68.4851 71.2313 72.8376 68.9304 78.1763 68.9863C83.515 69.0422 87.8183 71.4337 87.788 74.328C87.7577 77.2222 83.4052 79.5231 78.0665 79.4672Z" fill="#92B8DE"/>
</g>
<g style="mix-blend-mode:multiply">
<path d="M87.3427 74.3171C87.3427 77.0745 83.1582 79.2757 78.0626 79.2192C72.967 79.1628 68.8631 76.881 68.8873 74.1236C68.9115 71.3662 73.0718 69.157 78.1674 69.2135C83.263 69.2699 87.375 71.5597 87.3427 74.3171Z" fill="#91B7DD"/>
</g>
<g style="mix-blend-mode:multiply">
<path d="M86.9073 74.3171C86.9073 76.9456 82.9244 79.0419 78.0384 78.9935C73.1524 78.9451 69.2662 76.7682 69.2985 74.1559C69.3307 71.5436 73.2814 69.4312 78.1674 69.4876C83.0534 69.5441 86.9315 71.6887 86.9073 74.3171Z" fill="#8FB6DD"/>
</g>
<g style="mix-blend-mode:multiply">
<path d="M86.4639 74.3171C86.4639 76.8246 82.6825 78.808 78.0707 78.7596C73.4588 78.7112 69.7419 76.6472 69.7661 74.1478C69.7903 71.6484 73.5556 69.6569 78.1674 69.7053C82.7792 69.7536 86.4961 71.8096 86.4639 74.3171Z" fill="#8DB5DC"/>
</g>
<g style="mix-blend-mode:multiply">
<path d="M86.0285 74.3171C86.0285 76.6875 82.4406 78.5661 78.0707 78.5258C73.7007 78.4855 70.1854 76.5182 70.2096 74.1478C70.2338 71.7774 73.7975 69.8988 78.1593 69.9471C82.5212 69.9955 86.0527 71.9386 86.0285 74.3171Z" fill="#8BB3DB"/>
</g>
<g style="mix-blend-mode:multiply">
<path d="M85.5931 74.3171C85.5931 76.5585 82.2068 78.3484 78.0787 78.292C73.9506 78.2356 70.6288 76.3973 70.653 74.1639C70.6772 71.9306 74.0393 70.1326 78.1674 70.189C82.2955 70.2455 85.5931 72.0676 85.5931 74.3171Z" fill="#89B2DB"/>
</g>
<g style="mix-blend-mode:multiply">
<path d="M85.1497 74.3172C85.1497 76.4215 81.9246 78.0905 78.0787 78.0502C74.2328 78.0099 71.0642 76.2764 71.0884 74.164C71.1126 72.0515 74.3135 70.3906 78.1593 70.431C82.0052 70.4713 85.1738 72.1967 85.1497 74.3172Z" fill="#87B1DA"/>
</g>
<g style="mix-blend-mode:multiply">
<path d="M84.7062 74.3172C84.7062 76.2925 81.723 77.8647 78.0787 77.8244C74.4344 77.7841 71.5077 76.1555 71.5238 74.1801C71.5399 72.2048 74.515 70.6406 78.1513 70.6729C81.7875 70.7051 84.7304 72.3176 84.7062 74.3172Z" fill="#85B0DA"/>
</g>
<g style="mix-blend-mode:multiply">
<path d="M78.0864 77.5645C74.6891 77.5289 71.9506 76.0057 71.9699 74.1623C71.9892 72.3189 74.759 70.8534 78.1563 70.8889C81.5537 70.9245 84.2922 72.4477 84.2729 74.2911C84.2536 76.1345 81.4838 77.6 78.0864 77.5645Z" fill="#84AED9"/>
</g>
<g style="mix-blend-mode:multiply">
<path d="M83.8274 74.3171C83.8274 76.0264 81.2393 77.389 78.0868 77.3567C74.9343 77.3245 72.3865 75.9055 72.4026 74.1962C72.4187 72.4869 74.9907 71.1243 78.1513 71.1566C81.3118 71.1888 83.8435 72.5756 83.8274 74.3171Z" fill="#82ADD9"/>
</g>
<g style="mix-blend-mode:multiply">
<path d="M83.392 74.3171C83.392 75.9296 80.9732 77.1552 78.0868 77.1229C75.2004 77.0907 72.8299 75.7926 72.8461 74.2123C72.8622 72.632 75.2649 71.3742 78.1432 71.4065C81.0216 71.4387 83.4081 72.7046 83.392 74.3171Z" fill="#80ACD8"/>
</g>
<g style="mix-blend-mode:multiply">
<path d="M82.9486 74.3171C82.9486 75.7603 80.7555 76.9133 78.111 76.8891C75.4664 76.8649 73.2734 75.6636 73.2734 74.2123C73.2734 72.761 75.4664 71.6161 78.111 71.6484C80.7555 71.6806 82.9647 72.8255 82.9486 74.3171Z" fill="#7EAAD7"/>
</g>
<g style="mix-blend-mode:multiply">
<path d="M82.5132 74.2688C82.5132 75.591 80.5217 76.6311 78.0948 76.6069C75.668 76.5827 73.7088 75.4943 73.7249 74.1881C73.741 72.882 75.7164 71.8258 78.1432 71.85C80.5701 71.8741 82.5212 72.9545 82.5132 74.2688Z" fill="#7CA9D7"/>
</g>
<g style="mix-blend-mode:multiply">
<path d="M82.0697 74.2687C82.0697 75.454 80.2798 76.3892 78.0948 76.3731C75.9099 76.357 74.1522 75.3653 74.1603 74.1801C74.1683 72.9949 75.9582 72.0596 78.1432 72.0838C80.3282 72.108 82.0859 73.0835 82.0697 74.2687Z" fill="#7AA8D6"/>
</g>
<g style="mix-blend-mode:multiply">
<path d="M81.6343 74.2607C81.6343 75.3169 80.0218 76.1554 78.0948 76.1312C76.1679 76.107 74.5876 75.2443 74.6037 74.1881C74.6198 73.1319 76.2162 72.3014 78.1352 72.3176C80.0541 72.3337 81.6424 73.2125 81.6343 74.2607Z" fill="#78A7D5"/>
</g>
<g style="mix-blend-mode:multiply">
<path d="M81.1909 74.2607C81.1909 75.1798 79.7961 75.8732 78.1029 75.8732C76.4098 75.8732 75.031 75.0669 75.0391 74.18C75.0472 73.2931 76.4339 72.5675 78.1352 72.5675C79.8364 72.5675 81.199 73.3335 81.1909 74.2607Z" fill="#76A5D5"/>
</g>
<g style="mix-blend-mode:multiply">
<path d="M80.7555 74.2526C80.7555 75.0589 79.5542 75.6716 78.1029 75.6555C76.6516 75.6394 75.4745 74.9863 75.4826 74.1962C75.4906 73.406 76.6758 72.7771 78.1352 72.7933C79.5945 72.8094 80.7555 73.4625 80.7555 74.2526Z" fill="#74A4D4"/>
</g>
<g style="mix-blend-mode:multiply">
<path d="M80.3121 74.2445C80.3121 74.9057 79.3204 75.4298 78.1029 75.4136C76.8855 75.3975 75.9099 74.8573 75.9179 74.2042C75.926 73.5512 76.9177 73.019 78.1271 73.0351C79.3365 73.0513 80.3201 73.5915 80.3121 74.2445Z" fill="#71A3D4"/>
</g>
<g style="mix-blend-mode:multiply">
<path d="M79.8767 74.2446C79.8767 74.7686 79.0704 75.1879 78.111 75.1798C77.1515 75.1718 76.3533 74.7364 76.3614 74.2042C76.3694 73.6721 77.1676 73.2609 78.1271 73.269C79.0866 73.277 79.8767 73.7205 79.8767 74.2446Z" fill="#6FA1D3"/>
</g>
<g style="mix-blend-mode:multiply">
<path d="M79.4333 74.2365C79.4333 74.6315 78.8366 74.946 78.111 74.9379C77.3853 74.9299 76.7968 74.6074 76.7968 74.2123C76.7968 73.8172 77.3934 73.5028 78.1271 73.5108C78.8608 73.5189 79.4413 73.8414 79.4333 74.2365Z" fill="#6DA0D2"/>
</g>
<g style="mix-blend-mode:multiply">
<path d="M78.9979 74.2365C78.9979 74.4945 78.5947 74.7041 78.111 74.7041C77.6272 74.7041 77.2321 74.4784 77.2402 74.2123C77.2483 73.9463 77.6353 73.7447 78.119 73.7447C78.6028 73.7447 78.9979 73.9704 78.9979 74.2365Z" fill="#6B9ED2"/>
</g>
<g style="mix-blend-mode:multiply">
<path d="M78.5544 74.2285C78.5544 74.3575 78.3609 74.4623 78.111 74.4623C77.861 74.4623 77.6756 74.3494 77.6756 74.2204C77.6756 74.0914 77.8772 73.9866 78.119 73.9866C78.3609 73.9866 78.5544 74.0995 78.5544 74.2285Z" fill="#699DD1"/>
</g>
</g>
</g>
<path d="M25.8005 28.3197L74.3377 0.293964C74.5756 0.144946 74.8431 0.0496972 75.1217 0.0148805C75.4002 -0.0199362 75.683 0.00651973 75.9502 0.0923979H76.0389L77.7885 0.769661L76.2163 1.53561V1.6243L84.8756 40.6878C85.0733 41.5589 85.0106 42.469 84.6953 43.3047C84.3799 44.1405 83.8257 44.8651 83.1018 45.3884L35.7257 72.7369L35.895 74.7445L33.9841 74.0027C33.6204 73.8045 33.3071 73.5256 33.0681 73.1873C32.829 72.8491 32.6708 72.4605 32.6054 72.0516L24.0348 33.0444C23.8278 32.1706 23.8851 31.2549 24.1995 30.4137C24.5139 29.5725 25.0711 28.8436 25.8005 28.3197Z" fill="#173D7A"/>
<path d="M25.8005 28.3197L74.3376 0.293964C74.5755 0.144946 74.8431 0.0496972 75.1216 0.0148805C75.4001 -0.0199362 75.6829 0.00651973 75.9502 0.0923979H76.0389L77.7885 0.769661L76.2162 1.53561V1.6243L82.0939 28.36L58.4381 46.9283L24.2766 30.287C24.5446 29.4763 25.0825 28.7819 25.8005 28.3197Z" fill="#396CAA"/>
<path d="M27.6307 33.8829L23.938 32.351C23.8943 31.6619 24.0056 30.9718 24.2637 30.3313C24.5218 29.6909 24.9202 29.1164 25.4296 28.6503L31.2831 31.0691L27.6307 33.8829Z" fill="#274F89"/>
<path d="M37.5881 74.559L86.1252 46.5332C86.8494 46.0103 87.4031 45.2854 87.7172 44.4493C88.0313 43.6132 88.0917 42.703 87.891 41.8327L79.3204 2.83364C78.9253 1.0276 77.4901 0.213279 76.0953 1.00342L27.5582 29.0292C26.8347 29.5508 26.2813 30.2742 25.9672 31.109C25.6531 31.9437 25.5923 32.8525 25.7924 33.7216L34.363 72.7288C34.7742 74.5267 36.2094 75.3491 37.5881 74.559Z" fill="#D4ECFF"/>
<path d="M27.1066 28.8599L75.6519 0.834116C75.9346 0.65241 76.2606 0.549178 76.5964 0.53501C76.9321 0.520841 77.2657 0.596246 77.5627 0.753489C77.0648 0.648309 76.5455 0.737745 76.1114 1.00343L27.5743 29.0292C26.8508 29.5508 26.2974 30.2742 25.9833 31.109C25.6692 31.9437 25.6084 32.8526 25.8085 33.7217L34.3791 72.7288C34.4439 73.1224 34.5936 73.4972 34.8178 73.8271C35.0419 74.1571 35.3352 74.4343 35.6772 74.6396C35.2145 74.5 34.8022 74.2291 34.4902 73.8599C34.1783 73.4907 33.98 73.039 33.9196 72.5594L25.3409 33.5523C24.9459 31.7544 25.736 29.65 27.1066 28.8599Z" fill="white"/>
<path d="M38.6362 71.858L84.287 45.5335C84.9476 45.0543 85.4528 44.3914 85.7395 43.6273C86.0262 42.8632 86.0818 42.0316 85.8995 41.2361L77.99 5.28473C77.6353 3.6722 76.3211 2.86594 75.0633 3.61576L29.4126 29.9322C28.7511 30.4107 28.2453 31.0735 27.9585 31.8379C27.6717 32.6022 27.6166 33.4341 27.8 34.2296L35.7095 70.2455C36.0642 71.858 37.3785 72.5998 38.6362 71.858Z" fill="white"/>
<path d="M38.6362 71.858L84.287 45.5335C84.9476 45.0543 85.4528 44.3914 85.7395 43.6273C86.0262 42.8632 86.0818 42.0316 85.8995 41.2361L77.99 5.28473C77.6353 3.6722 76.3211 2.86594 75.0633 3.61576L29.4126 29.9322C28.7511 30.4107 28.2453 31.0735 27.9585 31.8379C27.6717 32.6022 27.6166 33.4341 27.8 34.2296L35.7095 70.2455C36.0642 71.858 37.3785 72.5998 38.6362 71.858Z" fill="#173D7A"/>
<path d="M38.2411 71.7129L83.8919 45.3722C84.5525 44.8931 85.0577 44.2301 85.3444 43.466C85.6311 42.7019 85.6868 41.8703 85.5044 41.0748L77.5949 5.12348C77.5361 4.76949 77.403 4.43197 77.2042 4.13318C77.0055 3.83439 76.7457 3.5811 76.442 3.39001C76.8503 3.53126 77.2113 3.78325 77.4847 4.11784C77.7581 4.45244 77.933 4.85645 77.99 5.28474L85.9075 41.22C86.0899 42.0155 86.0343 42.847 85.7475 43.6112C85.4608 44.3753 84.9557 45.0382 84.295 45.5174L38.6362 71.858C38.3709 72.0247 38.0661 72.1177 37.7529 72.1276C37.4398 72.1376 37.1297 72.064 36.8544 71.9145C37.0873 71.9745 37.3299 71.9876 37.568 71.953C37.8061 71.9184 38.0349 71.8368 38.2411 71.7129Z" fill="#5793CE"/>
<path d="M36.9108 75.7765L43.5464 74.8976L86.3833 50.1695C87.231 49.7852 88.1571 49.6055 89.0869 49.6447C90.0168 49.6839 90.9245 49.941 91.7369 50.3953L122.085 67.9073L126.116 67.3833V69.6569C126.116 69.9548 126.029 70.2462 125.865 70.4953C125.702 70.7445 125.47 70.9407 125.197 71.0598L76.6597 99.0856C75.8112 99.4712 74.8842 99.6523 73.953 99.6145C73.0218 99.5767 72.1124 99.321 71.298 98.8679L38.2412 79.7917C37.8789 79.6382 37.5652 79.389 37.3337 79.0709C37.1022 78.7527 36.9616 78.3776 36.927 77.9856L36.9108 75.7765Z" fill="#173D7A"/>
<path d="M69.097 60.151L72.1446 58.3934H105.605L122.093 67.9073L126.124 67.3832V69.6569C126.124 69.9548 126.037 70.2461 125.874 70.4953C125.71 70.7445 125.478 70.9406 125.205 71.0598L76.6678 99.0856C75.8145 99.5192 74.8545 99.6983 73.9023 99.6016L69.097 60.151Z" fill="#396CAA"/>
<path d="M124.318 67.6171L126.1 67.3832V69.6569C126.1 69.9548 126.013 70.2461 125.849 70.4953C125.686 70.7445 125.454 70.9407 125.181 71.0598L124.326 71.5597L124.318 67.6171Z" fill="#5793CE"/>
<path d="M76.1759 99.3114C74.6797 99.8011 73.0528 99.7001 71.6286 99.0292V93.9578H76.1759V99.3114Z" fill="#274F89"/>
<path d="M76.6355 96.8522L125.173 68.8264C126.551 68.0202 126.374 66.6495 124.794 65.7385L91.7369 46.6622C90.9245 46.208 90.0168 45.9509 89.087 45.9116C88.1571 45.8724 87.231 46.0522 86.3833 46.4365L37.8381 74.4622C36.4674 75.2685 36.6367 76.6392 38.2251 77.5583L71.2819 96.6345C72.0953 97.0863 73.0032 97.3413 73.9329 97.3791C74.8625 97.4169 75.7881 97.2365 76.6355 96.8522Z" fill="#D4ECFF"/>
<path d="M38.225 76.6956L71.2819 95.7719C72.0969 96.2231 73.0061 96.4778 73.9369 96.5156C74.8678 96.5534 75.7946 96.3732 76.6436 95.9895L125.181 67.9638C125.571 67.7678 125.875 67.4348 126.035 67.0285C126.138 67.3764 126.107 67.75 125.949 68.0764C125.791 68.4028 125.517 68.6587 125.181 68.7942L76.6355 96.8522C75.787 97.2378 74.86 97.419 73.9288 97.3811C72.9976 97.3433 72.0882 97.0876 71.2738 96.6345L38.217 77.5583C37.1527 76.9375 36.7254 76.1151 36.9753 75.3975C37.2242 75.9651 37.6673 76.4254 38.225 76.6956Z" fill="white"/>
<path d="M104.532 59.5141L106.725 58.2402C106.903 58.1435 106.879 57.9661 106.677 57.8451L104.081 56.3455C103.974 56.2951 103.857 56.269 103.738 56.269C103.62 56.269 103.503 56.2951 103.395 56.3455L101.17 57.5871C100.993 57.6919 101.017 57.8693 101.219 57.9822L103.807 59.4819C103.917 59.5436 104.04 59.5787 104.166 59.5843C104.292 59.5899 104.417 59.5659 104.532 59.5141Z" fill="#5793CE"/>
<path d="M101.17 61.4734L103.363 60.1995C103.541 60.1027 103.524 59.9253 103.315 59.8044L100.727 58.3047C100.618 58.2531 100.5 58.2264 100.38 58.2264C100.26 58.2264 100.142 58.2531 100.033 58.3047L97.8403 59.5706C97.6629 59.6754 97.6871 59.8528 97.8886 59.9656L100.485 61.4653C100.591 61.5169 100.708 61.5444 100.827 61.5458C100.945 61.5472 101.062 61.5224 101.17 61.4734Z" fill="#5793CE"/>
<path d="M97.7435 63.4245L99.9446 62.1828C100.122 62.078 100.098 61.9006 99.8963 61.7878L97.3001 60.2881C97.1929 60.2378 97.0759 60.2117 96.9574 60.2117C96.839 60.2117 96.722 60.2378 96.6148 60.2881L94.4137 61.5539C94.2443 61.6588 94.2605 61.8361 94.462 61.949L97.0582 63.4487C97.1672 63.4953 97.2851 63.5172 97.4036 63.5131C97.522 63.5089 97.6381 63.4786 97.7435 63.4245Z" fill="#5793CE"/>
<path d="M93.0591 61.812L95.2522 60.5704C95.4296 60.4655 95.4054 60.2882 95.2038 60.1672L93.0269 58.9095C92.9197 58.8591 92.8027 58.833 92.6842 58.833C92.5658 58.833 92.4488 58.8591 92.3416 58.9095L90.1405 60.1753C89.9631 60.2801 89.9873 60.4575 90.1888 60.5704L92.3658 61.8281C92.4752 61.8772 92.5943 61.9012 92.7143 61.8984C92.8342 61.8956 92.952 61.8661 93.0591 61.812Z" fill="#5793CE"/>
<path d="M89.6647 63.7954L91.8578 62.5215C92.0352 62.4248 92.011 62.2474 91.8094 62.1265L89.6325 60.8687C89.5253 60.8183 89.4083 60.7922 89.2898 60.7922C89.1714 60.7922 89.0544 60.8183 88.9472 60.8687L86.7541 62.1345C86.5767 62.2393 86.5929 62.4167 86.8025 62.5296L88.9794 63.7874C89.086 63.839 89.2027 63.8664 89.3212 63.8678C89.4396 63.8692 89.5569 63.8445 89.6647 63.7954Z" fill="#5793CE"/>
<path d="M86.2704 65.7304L88.4715 64.4565C88.6408 64.3598 88.6247 64.1824 88.4151 64.0615L86.2462 62.8037C86.1379 62.7521 86.0195 62.7253 85.8995 62.7253C85.7796 62.7253 85.6611 62.7521 85.5528 62.8037L83.3598 64.0695C83.1824 64.1743 83.2066 64.3517 83.4082 64.4646L85.5851 65.7224C85.6917 65.774 85.8084 65.8015 85.9269 65.8028C86.0453 65.8042 86.1626 65.7795 86.2704 65.7304Z" fill="#5793CE"/>
<path d="M82.8841 67.6816L85.0448 66.4158C85.2222 66.319 85.198 66.1336 84.9965 66.0207L82.8196 64.7629C82.7137 64.7078 82.5962 64.679 82.4769 64.679C82.3576 64.679 82.24 64.7078 82.1342 64.7629L79.9331 66.0287C79.7558 66.1255 79.7799 66.3029 79.9815 66.4238L82.1584 67.6816C82.271 67.7383 82.3952 67.7678 82.5212 67.7678C82.6473 67.7678 82.7715 67.7383 82.8841 67.6816Z" fill="#5793CE"/>
<path d="M79.4897 69.6408L81.6827 68.375C81.8601 68.2702 81.8359 68.0928 81.6343 67.9799L79.4574 66.7221C79.3502 66.6718 79.2332 66.6457 79.1148 66.6457C78.9963 66.6457 78.8793 66.6718 78.7721 66.7221L76.5791 67.996C76.4017 68.0928 76.4178 68.2702 76.6274 68.3911L78.8044 69.6489C78.9122 69.698 79.0295 69.7227 79.1479 69.7213C79.2664 69.7199 79.3831 69.6924 79.4897 69.6408Z" fill="#5793CE"/>
<path d="M76.0953 71.6L78.2964 70.3342C78.4657 70.2293 78.4496 70.052 78.248 69.9391L76.0711 68.6813C75.9628 68.6297 75.8444 68.603 75.7244 68.603C75.6045 68.603 75.486 68.6297 75.3777 68.6813L73.1847 69.9552C73.0073 70.052 73.0315 70.2293 73.2331 70.3503L75.41 71.6081C75.5178 71.6571 75.6351 71.6819 75.7536 71.6805C75.872 71.6791 75.9887 71.6516 76.0953 71.6Z" fill="#5793CE"/>
<path d="M72.709 73.5592L74.902 72.2934C75.0794 72.1886 75.0552 72.0112 74.8536 71.8983L72.6767 70.6405C72.5709 70.5854 72.4534 70.5566 72.3341 70.5566C72.2148 70.5566 72.0972 70.5854 71.9914 70.6405L69.7903 71.9064C69.6129 72.0112 69.6371 72.1886 69.8387 72.3095L72.0156 73.5592C72.1228 73.6144 72.2417 73.6432 72.3623 73.6432C72.4829 73.6432 72.6017 73.6144 72.709 73.5592Z" fill="#5793CE"/>
<path d="M69.3146 75.5185L71.5077 74.2768C71.685 74.172 71.6608 73.9946 71.4593 73.8737L69.2824 72.624C69.1766 72.5689 69.059 72.5401 68.9397 72.5401C68.8204 72.5401 68.7029 72.5689 68.597 72.624L66.404 73.8898C66.2266 73.9946 66.2428 74.172 66.4524 74.293L68.6293 75.5427C68.737 75.5941 68.8556 75.6187 68.9749 75.6145C69.0942 75.6103 69.2108 75.5774 69.3146 75.5185Z" fill="#5793CE"/>
<path d="M65.9202 77.5019L68.1133 76.2038C68.2906 76.107 68.2665 75.9297 68.0649 75.8087L65.888 74.5509C65.7797 74.4994 65.6612 74.4726 65.5413 74.4726C65.4213 74.4726 65.3029 74.4994 65.1946 74.5509L63.0015 75.8168C62.8242 75.9216 62.8484 76.099 63.0499 76.2118L65.2268 77.4696C65.3327 77.5263 65.4499 77.5586 65.5699 77.5642C65.6898 77.5698 65.8095 77.5485 65.9202 77.5019Z" fill="#5793CE"/>
<path d="M62.5339 79.4369L64.7269 78.163C64.9043 78.0662 64.8801 77.8889 64.6786 77.7679L62.5016 76.5102C62.3944 76.4598 62.2774 76.4337 62.159 76.4337C62.0405 76.4337 61.9235 76.4598 61.8163 76.5102L59.6152 77.776C59.4378 77.8808 59.462 78.0582 59.6636 78.1711L61.8405 79.4288C61.9482 79.4817 62.0663 79.5098 62.1863 79.5112C62.3062 79.5126 62.425 79.4872 62.5339 79.4369Z" fill="#5793CE"/>
<path d="M88.0603 60.8847L90.2533 59.6189C90.4307 59.5141 90.4065 59.3367 90.2049 59.2157L88.028 57.958C87.9208 57.9076 87.8038 57.8815 87.6854 57.8815C87.5669 57.8815 87.4499 57.9076 87.3427 57.958L85.1416 59.2238C84.9723 59.3286 84.9884 59.506 85.19 59.6189L87.3669 60.8766C87.4746 60.9295 87.5927 60.9576 87.7127 60.959C87.8326 60.9604 87.9514 60.935 88.0603 60.8847Z" fill="#5793CE"/>
<path d="M91.495 58.8933L93.688 57.6275C93.8654 57.5227 93.8412 57.3453 93.6396 57.2324L91.495 55.9746C91.3878 55.9243 91.2708 55.8982 91.1523 55.8982C91.0339 55.8982 90.9169 55.9243 90.8096 55.9746L88.6085 57.2485C88.4312 57.3453 88.4554 57.5227 88.6569 57.6436L90.8338 58.9014C90.9383 58.9468 91.0513 58.9696 91.1653 58.9682C91.2792 58.9668 91.3916 58.9413 91.495 58.8933Z" fill="#5793CE"/>
<path d="M94.9458 56.9018L99.6786 54.1766C99.8559 54.0718 99.8318 53.8944 99.6302 53.7735L97.4533 52.5238C97.3475 52.4687 97.2299 52.4399 97.1106 52.4399C96.9913 52.4399 96.8738 52.4687 96.7679 52.5238L92.0352 55.257C91.8578 55.3538 91.882 55.5311 92.0835 55.6521L94.2605 56.9099C94.3683 56.9589 94.4856 56.9837 94.604 56.9823C94.7225 56.9809 94.8392 56.9534 94.9458 56.9018Z" fill="#5793CE"/>
<path d="M92.5351 54.483L96.3326 52.2658C96.5099 52.169 96.4938 51.9917 96.2842 51.8707L94.1073 50.6129C94.0001 50.5626 93.8831 50.5365 93.7646 50.5365C93.6462 50.5365 93.5292 50.5626 93.4219 50.6129L89.5841 52.8302C89.4068 52.9269 89.4309 53.1043 89.6325 53.2252L91.8094 54.483C91.922 54.5397 92.0462 54.5693 92.1722 54.5693C92.2983 54.5693 92.4225 54.5397 92.5351 54.483Z" fill="#5793CE"/>
<path d="M84.6659 62.844L86.8589 61.5701C87.0363 61.4734 87.0202 61.296 86.8106 61.175L84.6337 59.9173C84.5264 59.8669 84.4094 59.8408 84.291 59.8408C84.1725 59.8408 84.0555 59.8669 83.9483 59.9173L81.7553 61.1831C81.5779 61.2879 81.6021 61.4653 81.8037 61.5782L83.9806 62.8359C84.0872 62.8875 84.2039 62.915 84.3223 62.9164C84.4408 62.9178 84.5581 62.8931 84.6659 62.844Z" fill="#5793CE"/>
<path d="M81.2715 64.8032L83.4323 63.5293C83.6097 63.4325 83.5855 63.2552 83.3839 63.1342L81.207 61.8764C81.0987 61.8249 80.9803 61.7981 80.8603 61.7981C80.7404 61.7981 80.6219 61.8249 80.5136 61.8764L78.3206 63.1423C78.1432 63.2471 78.1674 63.4245 78.369 63.5373L80.5459 64.7951C80.6578 64.8531 80.7817 64.884 80.9077 64.8854C81.0338 64.8868 81.1584 64.8586 81.2715 64.8032Z" fill="#5793CE"/>
<path d="M77.8852 66.7543L80.0783 65.4885C80.2556 65.3917 80.2315 65.2063 80.0299 65.0934L77.853 63.8357C77.7472 63.7805 77.6296 63.7518 77.5103 63.7518C77.391 63.7518 77.2735 63.7805 77.1676 63.8357L74.9665 65.1015C74.7972 65.1982 74.8134 65.3756 75.023 65.4966L77.1918 66.7543C77.3001 66.8059 77.4186 66.8327 77.5385 66.8327C77.6585 66.8327 77.7769 66.8059 77.8852 66.7543Z" fill="#5793CE"/>
<path d="M74.4908 68.7136L76.6839 67.4477C76.8613 67.3429 76.8451 67.1655 76.6355 67.0527L74.4586 65.7949C74.3514 65.7445 74.2344 65.7184 74.1159 65.7184C73.9975 65.7184 73.8805 65.7445 73.7733 65.7949L71.5802 67.0204C71.4029 67.1172 71.427 67.2945 71.6286 67.4155L73.8055 68.6733C73.9097 68.73 74.0252 68.763 74.1437 68.77C74.2621 68.777 74.3807 68.7577 74.4908 68.7136Z" fill="#5793CE"/>
<path d="M71.0964 70.6728L73.2975 69.4393C73.4749 69.3344 73.4507 69.1571 73.2492 69.0442L71.0723 67.7864C70.964 67.7348 70.8455 67.7081 70.7256 67.7081C70.6056 67.7081 70.4872 67.7348 70.3789 67.7864L68.1858 69.0603C68.0085 69.1571 68.0326 69.3344 68.2342 69.4554L70.4111 70.7132C70.5213 70.7573 70.6398 70.7766 70.7583 70.7696C70.8768 70.7626 70.9922 70.7296 71.0964 70.6728Z" fill="#5793CE"/>
<path d="M67.7102 72.6643L69.9032 71.3985C70.0806 71.2937 70.0564 71.1163 69.8548 71.0034L67.6779 69.7456C67.5707 69.6953 67.4537 69.6692 67.3353 69.6692C67.2168 69.6692 67.0998 69.6953 66.9926 69.7456L64.7915 71.0115C64.6222 71.1163 64.6383 71.2937 64.8479 71.4146L67.0168 72.6724C67.1257 72.7227 67.2444 72.7481 67.3644 72.7467C67.4843 72.7453 67.6025 72.7172 67.7102 72.6643Z" fill="#5793CE"/>
<path d="M64.3158 74.5913L66.5008 73.3254C66.6781 73.2206 66.662 73.0432 66.4524 72.9223L64.2755 71.6726C64.1697 71.6175 64.0521 71.5887 63.9328 71.5887C63.8135 71.5887 63.696 71.6175 63.5901 71.6726L61.3971 72.9384C61.2197 73.0432 61.2439 73.2206 61.4455 73.3415L63.6224 74.5913C63.7292 74.6477 63.8482 74.6773 63.9691 74.6773C64.0899 74.6773 64.2089 74.6477 64.3158 74.5913Z" fill="#5793CE"/>
<path d="M60.9214 76.5505L63.1225 75.2847C63.2999 75.1798 63.2757 75.0025 63.0741 74.8815L60.8972 73.6238C60.7889 73.5722 60.6705 73.5454 60.5505 73.5454C60.4305 73.5454 60.3121 73.5722 60.2038 73.6238L58.0108 74.8896C57.8334 74.9944 57.8576 75.1718 58.0591 75.2847L60.2361 76.5424C60.3427 76.594 60.4594 76.6215 60.5778 76.6229C60.6963 76.6243 60.8136 76.5996 60.9214 76.5505Z" fill="#5793CE"/>
<path d="M57.5351 78.5097L59.7281 77.2358C59.9055 77.1391 59.8813 76.9617 59.6798 76.8407L57.5028 75.583C57.3956 75.5326 57.2786 75.5065 57.1602 75.5065C57.0417 75.5065 56.9247 75.5326 56.8175 75.583L54.6164 76.8488C54.4471 76.9536 54.4632 77.131 54.6729 77.2439L56.8256 78.4775C56.9335 78.5367 57.0536 78.5703 57.1766 78.5759C57.2996 78.5815 57.4222 78.5589 57.5351 78.5097Z" fill="#5793CE"/>
<path d="M51.5042 81.9847L56.2934 79.2192C56.4708 79.1225 56.4466 78.9451 56.2451 78.8241L54.0682 77.5664C53.9609 77.516 53.8439 77.4899 53.7255 77.4899C53.607 77.4899 53.4901 77.516 53.3828 77.5664L48.5936 80.3319C48.4162 80.4286 48.4324 80.606 48.642 80.7269L50.8189 81.9847C50.9261 82.035 51.0431 82.0611 51.1616 82.0611C51.28 82.0611 51.397 82.035 51.5042 81.9847Z" fill="#5793CE"/>
<path d="M44.9009 78.1792L48.9322 75.841C49.1016 75.7362 49.0854 75.5588 48.8758 75.4459L46.7069 74.1881C46.5986 74.1366 46.4802 74.1098 46.3603 74.1098C46.2403 74.1098 46.1218 74.1366 46.0136 74.1881L41.9822 76.5263C41.8048 76.6311 41.821 76.8085 42.0306 76.9214L44.2075 78.1792C44.3158 78.2307 44.4343 78.2575 44.5542 78.2575C44.6742 78.2575 44.7926 78.2307 44.9009 78.1792Z" fill="#5793CE"/>
<path d="M78.7237 62.4569L80.9248 61.1911C81.1022 61.0863 81.078 60.9089 80.8765 60.796L78.6995 59.5382C78.5913 59.4867 78.4728 59.4599 78.3528 59.4599C78.2329 59.4599 78.1145 59.4867 78.0062 59.5382L75.8131 60.8121C75.6357 60.9089 75.6599 61.0863 75.8615 61.2072L78.0384 62.465C78.1462 62.5141 78.2635 62.5388 78.382 62.5374C78.5004 62.536 78.6171 62.5085 78.7237 62.4569Z" fill="#5793CE"/>
<path d="M82.2068 60.4493L84.3998 59.1835C84.5772 59.0787 84.553 58.9013 84.3515 58.7884L82.1745 57.5307C82.0673 57.4803 81.9503 57.4542 81.8319 57.4542C81.7134 57.4542 81.5964 57.4803 81.4892 57.5307L79.2881 58.8046C79.1107 58.9013 79.1349 59.0787 79.3365 59.1996L81.5134 60.4574C81.6223 60.5077 81.7411 60.5331 81.861 60.5317C81.981 60.5303 82.0991 60.5022 82.2068 60.4493Z" fill="#5793CE"/>
<path d="M85.6818 58.4418L87.8748 57.1759C88.0522 57.0711 88.028 56.8937 87.8265 56.7809L85.6495 55.5231C85.5423 55.4728 85.4253 55.4467 85.3069 55.4467C85.1884 55.4467 85.0714 55.4728 84.9642 55.5231L82.7631 56.797C82.5857 56.8937 82.6099 57.0711 82.8115 57.1921L84.9884 58.4498C85.0973 58.5002 85.2161 58.5256 85.336 58.5242C85.456 58.5228 85.5741 58.4946 85.6818 58.4418Z" fill="#5793CE"/>
<path d="M89.1568 56.4342L91.3498 55.1683C91.5272 55.0716 91.503 54.8861 91.3015 54.7732L89.1245 53.5155C89.0187 53.4604 88.9012 53.4316 88.7819 53.4316C88.6626 53.4316 88.545 53.4604 88.4392 53.5155L86.2381 54.7813C86.0688 54.8781 86.0849 55.0554 86.2946 55.1764L88.4634 56.4342C88.5717 56.4857 88.6901 56.5125 88.8101 56.5125C88.9301 56.5125 89.0485 56.4857 89.1568 56.4342Z" fill="#5793CE"/>
<path d="M75.3697 64.4162L77.5627 63.1504C77.7401 63.0455 77.7159 62.8682 77.5143 62.7553L75.3374 61.4975C75.2302 61.4472 75.1132 61.4211 74.9948 61.4211C74.8763 61.4211 74.7593 61.4472 74.6521 61.4975L72.451 62.7634C72.2817 62.8682 72.2978 63.0456 72.4994 63.1665L74.6763 64.4243C74.7852 64.4746 74.9039 64.5 75.0239 64.4986C75.1439 64.4972 75.262 64.469 75.3697 64.4162Z" fill="#5793CE"/>
<path d="M71.943 66.3754L74.1361 65.1096C74.3134 65.0048 74.2973 64.8274 74.0877 64.7065L71.9108 63.4568C71.805 63.4016 71.6874 63.3729 71.5681 63.3729C71.4488 63.3729 71.3313 63.4016 71.2255 63.4568L69.0324 64.7226C68.855 64.8274 68.8792 65.0048 69.0808 65.1257L71.2577 66.3754C71.3635 66.4305 71.4811 66.4593 71.6004 66.4593C71.7197 66.4593 71.8372 66.4305 71.943 66.3754Z" fill="#5793CE"/>
<path d="M68.5487 68.3347L70.7498 67.0688C70.9271 66.964 70.903 66.7866 70.7014 66.6657L68.5245 65.4079C68.4162 65.3564 68.2977 65.3296 68.1778 65.3296C68.0578 65.3296 67.9394 65.3564 67.8311 65.4079L65.638 66.6738C65.4607 66.7786 65.4849 66.956 65.6864 67.0688L67.8633 68.3266C67.97 68.3782 68.0867 68.4057 68.2051 68.4071C68.3236 68.4085 68.4408 68.3838 68.5487 68.3347Z" fill="#5793CE"/>
<path d="M65.1623 70.2939L67.3554 69.02C67.5328 68.9232 67.5086 68.7459 67.307 68.6249L65.1301 67.3672C65.0229 67.3168 64.9059 67.2907 64.7874 67.2907C64.669 67.2907 64.552 67.3168 64.4448 67.3672L62.2437 68.633C62.0743 68.7378 62.0905 68.9152 62.3001 69.0281L64.4689 70.2455C64.5736 70.3048 64.6902 70.3399 64.8102 70.3483C64.9301 70.3566 65.0505 70.3381 65.1623 70.2939Z" fill="#5793CE"/>
<path d="M61.768 72.2531L63.961 70.9792C64.1384 70.8824 64.1223 70.705 63.9126 70.5841L61.7357 69.3263C61.6285 69.276 61.5115 69.2499 61.393 69.2499C61.2746 69.2499 61.1576 69.276 61.0504 69.3263L58.8574 70.5922C58.68 70.697 58.7042 70.8743 58.9057 70.9872L61.0826 72.245C61.1893 72.2966 61.306 72.3241 61.4244 72.3255C61.5429 72.3269 61.6602 72.3021 61.768 72.2531Z" fill="#5793CE"/>
<path d="M58.3736 74.2043L60.5747 72.9384C60.7521 72.8417 60.7279 72.6563 60.5263 72.5434L58.3494 71.2856C58.2422 71.2304 58.1233 71.2017 58.0027 71.2017C57.8821 71.2017 57.7633 71.2304 57.656 71.2856L55.463 72.5514C55.2856 72.6482 55.3098 72.8256 55.5114 72.9465L57.6883 74.2043C57.7955 74.2546 57.9125 74.2807 58.0309 74.2807C58.1494 74.2807 58.2664 74.2546 58.3736 74.2043Z" fill="#5793CE"/>
<path d="M54.9873 76.1635L57.1803 74.8976C57.3577 74.7928 57.3335 74.6154 57.1319 74.5025L54.955 73.2448C54.8478 73.1944 54.7308 73.1683 54.6124 73.1683C54.4939 73.1683 54.3769 73.1944 54.2697 73.2448L52.0686 74.5187C51.8993 74.6154 51.9154 74.7928 52.125 74.9137L54.2939 76.1715C54.4028 76.2218 54.5215 76.2472 54.6415 76.2458C54.7614 76.2444 54.8796 76.2163 54.9873 76.1635Z" fill="#5793CE"/>
<path d="M51.5929 78.1227L53.7859 76.8568C53.9633 76.752 53.9472 76.5747 53.7376 76.4618L51.5607 75.204C51.4534 75.1537 51.3364 75.1276 51.218 75.1276C51.0995 75.1276 50.9826 75.1537 50.8753 75.204L48.6823 76.4779C48.5049 76.5747 48.5291 76.752 48.7307 76.873L50.9076 78.1307C51.0154 78.1798 51.1327 78.2046 51.2512 78.2032C51.3696 78.2018 51.4863 78.1743 51.5929 78.1227Z" fill="#5793CE"/>
<path d="M48.1985 80.0819L50.3754 78.8161C50.5528 78.7113 50.5286 78.5339 50.3271 78.4129L48.1502 77.1632C48.0429 77.1081 47.9241 77.0793 47.8035 77.0793C47.6829 77.0793 47.564 77.1081 47.4568 77.1632L45.2637 78.4291C45.0863 78.5339 45.1105 78.7113 45.3121 78.8322L47.489 80.0819C47.5979 80.1412 47.7198 80.1722 47.8438 80.1722C47.9677 80.1722 48.0897 80.1412 48.1985 80.0819Z" fill="#5793CE"/>
<path d="M80.5137 57.6113L82.7067 56.3455C82.8841 56.2487 82.8599 56.0633 82.6583 55.9504L80.4814 54.6926C80.3742 54.6423 80.2572 54.6162 80.1387 54.6162C80.0203 54.6162 79.9033 54.6423 79.7961 54.6926L77.603 55.9585C77.4257 56.0552 77.4418 56.2326 77.6514 56.3536L79.8283 57.6113C79.9355 57.6617 80.0525 57.6878 80.171 57.6878C80.2894 57.6878 80.4064 57.6617 80.5137 57.6113Z" fill="#5793CE"/>
<path d="M83.8838 55.6682L86.0849 54.4024C86.2623 54.2976 86.2381 54.1202 86.0365 53.9993L83.8596 52.7415C83.7524 52.6911 83.6354 52.665 83.5169 52.665C83.3985 52.665 83.2815 52.6911 83.1743 52.7415L80.9732 54.0073C80.7958 54.1121 80.82 54.2895 81.0216 54.4024L83.1985 55.6602C83.3051 55.7118 83.4218 55.7392 83.5402 55.7406C83.6587 55.742 83.776 55.7173 83.8838 55.6682Z" fill="#5793CE"/>
<path d="M87.2621 53.7171L89.4551 52.4513C89.6325 52.3465 89.6164 52.1691 89.4067 52.0562L87.2298 50.7984C87.1226 50.7481 87.0056 50.722 86.8872 50.722C86.7687 50.722 86.6517 50.7481 86.5445 50.7984L84.3514 52.0643C84.1741 52.1691 84.1983 52.3464 84.3998 52.4674L86.5767 53.7252C86.6845 53.7743 86.8019 53.799 86.9203 53.7976C87.0387 53.7962 87.1554 53.7687 87.2621 53.7171Z" fill="#5793CE"/>
<path d="M90.6403 51.7659L92.8334 50.5C93.0108 50.4033 92.9866 50.2259 92.785 50.105L90.6081 48.8472C90.5009 48.7968 90.3839 48.7708 90.2654 48.7708C90.147 48.7708 90.03 48.7968 89.9228 48.8472L87.7217 50.0888C87.5443 50.1856 87.5685 50.371 87.77 50.4839L89.947 51.7417C90.0523 51.8006 90.1701 51.8336 90.2907 51.8378C90.4113 51.842 90.5312 51.8173 90.6403 51.7659Z" fill="#5793CE"/>
<path d="M87.1653 49.7664L89.3664 48.4763C89.5358 48.3715 89.5196 48.1941 89.31 48.0732L88.5924 47.662C88.4852 47.6117 88.3682 47.5856 88.2498 47.5856C88.1313 47.5856 88.0143 47.6117 87.9071 47.662L85.7141 48.9359C85.5367 49.0327 85.5528 49.21 85.7624 49.331L86.48 49.7422C86.5839 49.8011 86.7004 49.834 86.8197 49.8382C86.939 49.8424 87.0576 49.8178 87.1653 49.7664Z" fill="#5793CE"/>
<path d="M82.7631 52.3061L84.9562 51.0402C85.1335 50.9354 85.1094 50.758 84.9078 50.6452L84.1902 50.2259C84.083 50.1756 83.966 50.1495 83.8475 50.1495C83.7291 50.1495 83.6121 50.1756 83.5049 50.2259L81.3038 51.4917C81.1264 51.5966 81.1506 51.7739 81.3522 51.8868L82.0778 52.3061C82.185 52.3564 82.302 52.3825 82.4205 52.3825C82.5389 52.3825 82.6559 52.3564 82.7631 52.3061Z" fill="#5793CE"/>
<path d="M79.401 54.2492L81.6021 52.9834C81.7714 52.8785 81.7553 52.7012 81.5457 52.5802L80.8281 52.169C80.7209 52.1187 80.6039 52.0926 80.4854 52.0926C80.367 52.0926 80.25 52.1187 80.1428 52.169L77.9417 53.4429C77.7724 53.5397 77.7885 53.7171 77.9981 53.838L78.7157 54.2492C78.8215 54.3043 78.939 54.3331 79.0583 54.3331C79.1776 54.3331 79.2952 54.3043 79.401 54.2492Z" fill="#5793CE"/>
<path d="M76.0389 56.1922L78.24 54.9264C78.4173 54.8297 78.3931 54.6523 78.1916 54.5313L77.4659 54.1201C77.3601 54.065 77.2426 54.0363 77.1233 54.0363C77.004 54.0363 76.8864 54.065 76.7806 54.1201L74.5634 55.3457C74.386 55.4505 74.4021 55.6279 74.6118 55.7488L75.3293 56.16C75.4373 56.2192 75.5574 56.2529 75.6804 56.2585C75.8033 56.2641 75.926 56.2414 76.0389 56.1922Z" fill="#5793CE"/>
<path d="M72.6767 58.1515L74.8778 56.8857C75.0552 56.7808 75.031 56.6035 74.8295 56.4906L74.1119 56.0713C74.0036 56.0197 73.8851 55.993 73.7652 55.993C73.6452 55.993 73.5268 56.0197 73.4185 56.0713L71.2255 57.3372C71.0481 57.442 71.0723 57.6194 71.2738 57.7322L71.9914 58.1515C72.0986 58.2018 72.2156 58.2279 72.3341 58.2279C72.4525 58.2279 72.5695 58.2018 72.6767 58.1515Z" fill="#5793CE"/>
<path d="M53.9149 68.9635L56.116 67.6977C56.2934 67.5928 56.2692 67.4155 56.0677 67.2945L55.342 66.8833C55.2348 66.833 55.1178 66.8069 54.9994 66.8069C54.8809 66.8069 54.7639 66.833 54.6567 66.8833L52.4637 68.1572C52.2863 68.254 52.3105 68.4314 52.512 68.5523L53.2296 68.9635C53.3368 69.0138 53.4538 69.0399 53.5723 69.0399C53.6907 69.0399 53.8077 69.0138 53.9149 68.9635Z" fill="#5793CE"/>
<path d="M50.5609 70.8986L52.7539 69.6327C52.9313 69.536 52.9071 69.3586 52.7056 69.2377L51.988 68.8184C51.8797 68.7668 51.7612 68.7401 51.6413 68.7401C51.5213 68.7401 51.4029 68.7668 51.2946 68.8184L49.1015 70.0842C48.9242 70.1891 48.9484 70.3664 49.1499 70.4793L49.8675 70.8986C49.9747 70.9537 50.0936 70.9825 50.2142 70.9825C50.3348 70.9825 50.4536 70.9537 50.5609 70.8986Z" fill="#5793CE"/>
<path d="M47.1988 72.8417L49.3918 71.5758C49.5692 71.471 49.545 71.2936 49.3434 71.1808L48.6259 70.7615C48.5176 70.7099 48.3991 70.6832 48.2792 70.6832C48.1592 70.6832 48.0408 70.7099 47.9325 70.7615L45.7394 72.0273C45.5621 72.1241 45.5863 72.3095 45.7878 72.4224L46.5054 72.8417C46.6137 72.8933 46.7321 72.92 46.8521 72.92C46.972 72.92 47.0905 72.8933 47.1988 72.8417Z" fill="#5793CE"/>
<path d="M43.8367 74.7848L46.0297 73.5189C46.2071 73.4141 46.1829 73.2367 45.9813 73.1158L45.2638 72.7046C45.1565 72.6543 45.0395 72.6282 44.9211 72.6282C44.8026 72.6282 44.6856 72.6543 44.5784 72.7046L42.3773 73.9705C42.2 74.0753 42.2241 74.2526 42.4257 74.3736L43.1513 74.7848C43.2586 74.8351 43.3756 74.8612 43.494 74.8612C43.6125 74.8612 43.7294 74.8351 43.8367 74.7848Z" fill="#5793CE"/>
<path d="M77.1193 59.5706L79.3204 58.3047C79.4978 58.1999 79.4736 58.0225 79.272 57.9097L77.0951 56.6519C76.9868 56.6003 76.8684 56.5735 76.7484 56.5735C76.6284 56.5735 76.51 56.6003 76.4017 56.6519L74.2087 57.9258C74.0313 58.0225 74.0555 58.1999 74.257 58.3209L76.434 59.5786C76.5418 59.6277 76.6591 59.6524 76.7775 59.651C76.896 59.6497 77.0126 59.6222 77.1193 59.5706Z" fill="#5793CE"/>
<path d="M73.7571 61.5298L75.9502 60.2639C76.1276 60.1591 76.1034 59.9818 75.9018 59.8689L73.7249 58.6111C73.6177 58.5608 73.5007 58.5347 73.3822 58.5347C73.2638 58.5347 73.1468 58.5608 73.0396 58.6111L70.8385 59.885C70.6611 59.9818 70.6853 60.1591 70.8868 60.2801L73.0638 61.5378C73.1727 61.5882 73.2914 61.6136 73.4114 61.6122C73.5313 61.6108 73.6494 61.5826 73.7571 61.5298Z" fill="#5793CE"/>
<path d="M70.3386 63.489L72.5316 62.2232C72.709 62.1184 72.6848 61.941 72.4833 61.8281L70.3063 60.5703C70.1991 60.52 70.0821 60.4939 69.9637 60.4939C69.8452 60.4939 69.7282 60.52 69.621 60.5703L67.428 61.8362C67.2506 61.941 67.2667 62.1184 67.4764 62.2393L69.6533 63.4971C69.7611 63.5462 69.8784 63.5709 69.9968 63.5695C70.1153 63.5681 70.232 63.5406 70.3386 63.489Z" fill="#5793CE"/>
<path d="M66.9442 65.4482L69.1453 64.1823C69.3227 64.0775 69.2985 63.9002 69.0969 63.7792L66.92 62.5295C66.8128 62.4743 66.6939 62.4456 66.5733 62.4456C66.4527 62.4456 66.3339 62.4743 66.2266 62.5295L64.0336 63.7953C63.8562 63.9002 63.8804 64.0775 64.082 64.1985L66.2589 65.4079C66.3614 65.4693 66.4773 65.5051 66.5966 65.5121C66.7159 65.5191 66.8352 65.4972 66.9442 65.4482Z" fill="#5793CE"/>
<path d="M63.5579 67.4074L65.7509 66.1416C65.9283 66.0368 65.9041 65.8594 65.7025 65.7384L63.5256 64.4807C63.4184 64.4303 63.3014 64.4042 63.183 64.4042C63.0645 64.4042 62.9475 64.4303 62.8403 64.4807L60.6392 65.7465C60.4618 65.8513 60.486 66.0287 60.6876 66.1416L62.8645 67.3994C62.9722 67.4522 63.0903 67.4803 63.2103 67.4817C63.3302 67.4831 63.449 67.4577 63.5579 67.4074Z" fill="#5793CE"/>
<path d="M60.1635 69.3666L62.3566 68.0927C62.534 67.996 62.5098 67.8186 62.3082 67.6977L60.1313 66.4399C60.0241 66.3896 59.9071 66.3635 59.7886 66.3635C59.6702 66.3635 59.5532 66.3896 59.446 66.4399L57.2529 67.7057C57.0755 67.8106 57.0917 67.9879 57.3013 68.1008L59.4782 69.3586C59.5848 69.4102 59.7015 69.4377 59.82 69.4391C59.9384 69.4405 60.0557 69.4157 60.1635 69.3666Z" fill="#5793CE"/>
<path d="M56.7691 71.3259L58.9703 70.052C59.1476 69.9552 59.1234 69.7779 58.9219 69.6569L56.745 68.3991C56.6367 68.3476 56.5182 68.3208 56.3983 68.3208C56.2783 68.3208 56.1599 68.3476 56.0516 68.3991L53.8585 69.665C53.6812 69.7698 53.7053 69.9472 53.9069 70.06L56.0838 71.3178C56.1904 71.3694 56.3071 71.3969 56.4256 71.3983C56.544 71.3997 56.6613 71.375 56.7691 71.3259Z" fill="#5793CE"/>
<path d="M53.3828 73.277L55.5759 72.0112C55.7532 71.9145 55.7291 71.729 55.5275 71.6161L53.3506 70.3584C53.2448 70.3033 53.1272 70.2745 53.0079 70.2745C52.8886 70.2745 52.7711 70.3033 52.6652 70.3584L50.4641 71.6242C50.2868 71.721 50.3109 71.8983 50.5125 72.0193L52.6894 73.277C52.7977 73.3286 52.9162 73.3554 53.0361 73.3554C53.1561 73.3554 53.2745 73.3286 53.3828 73.277Z" fill="#5793CE"/>
<path d="M49.9885 75.2363L52.1815 73.9704C52.3589 73.8656 52.3347 73.6882 52.1331 73.5754L49.9562 72.3176C49.849 72.2672 49.732 72.2411 49.6136 72.2411C49.4951 72.2411 49.3781 72.2672 49.2709 72.3176L47.0779 73.5915C46.9005 73.6882 46.9166 73.8656 47.1262 73.9866L49.3032 75.2443C49.411 75.2934 49.5283 75.3181 49.6467 75.3167C49.7652 75.3153 49.8819 75.2879 49.9885 75.2363Z" fill="#5793CE"/>
<path d="M96.5099 59.8124L102.96 56.0794C103.137 55.9746 103.121 55.7972 102.912 55.6844L100.735 54.4266C100.628 54.3763 100.511 54.3502 100.392 54.3502C100.274 54.3502 100.157 54.3763 100.049 54.4266L93.5993 58.1677C93.4219 58.2644 93.4461 58.4418 93.6477 58.5627L95.8246 59.7641C95.9282 59.8221 96.0434 59.8565 96.1618 59.8649C96.2803 59.8733 96.3992 59.8554 96.5099 59.8124Z" fill="#5793CE"/>
<path d="M54.8422 83.8714L61.2923 80.1383C61.4616 80.0335 61.4455 79.8561 61.2359 79.7433L59.0589 78.4855C58.9517 78.4352 58.8347 78.4091 58.7163 78.4091C58.5978 78.4091 58.4808 78.4352 58.3736 78.4855L51.9235 82.2185C51.7461 82.3233 51.7703 82.5007 51.9719 82.6216L54.1488 83.8714C54.2556 83.9278 54.3746 83.9574 54.4955 83.9574C54.6163 83.9574 54.7353 83.9278 54.8422 83.8714Z" fill="#5793CE"/>
<path d="M68.4116 80.3641L70.6047 79.1144C70.782 79.0096 70.7578 78.8322 70.5563 78.7193L67.9601 77.2197C67.8543 77.1646 67.7367 77.1358 67.6174 77.1358C67.4981 77.1358 67.3806 77.1646 67.2748 77.2197L65.0817 78.4855C64.9044 78.5823 64.9205 78.7597 65.1301 78.8806L67.7182 80.3803C67.8277 80.4293 67.9468 80.4534 68.0667 80.4506C68.1867 80.4478 68.3045 80.4182 68.4116 80.3641Z" fill="#5793CE"/>
<path d="M93.0349 66.1416L96.5502 64.1178C96.7276 64.013 96.7034 63.8356 96.5019 63.7228L93.9138 62.2231C93.8079 62.168 93.6904 62.1392 93.5711 62.1392C93.4518 62.1392 93.3342 62.168 93.2284 62.2231L89.7131 64.2468C89.5438 64.3516 89.5599 64.529 89.7696 64.6419L92.3577 66.1416C92.4625 66.1953 92.5785 66.2234 92.6963 66.2234C92.8141 66.2234 92.9301 66.1953 93.0349 66.1416Z" fill="#5793CE"/>
<path d="M71.677 78.4774L75.1923 76.4537C75.3616 76.3489 75.3455 76.1715 75.1359 76.0506L72.5477 74.559C72.4405 74.5086 72.3235 74.4825 72.2051 74.4825C72.0866 74.4825 71.9696 74.5086 71.8624 74.559L68.3471 76.5908C68.1697 76.6875 68.1939 76.8649 68.3955 76.9858L70.9917 78.4855C71.0995 78.5346 71.2168 78.5593 71.3352 78.5579C71.4537 78.5565 71.5703 78.529 71.677 78.4774Z" fill="#5793CE"/>
<path d="M88.149 68.9716L91.6562 66.9398C91.8336 66.8431 91.8094 66.6657 91.6078 66.5447L89.0197 65.0451C88.9114 64.9935 88.793 64.9667 88.673 64.9667C88.5531 64.9667 88.4347 64.9935 88.3264 65.0451L84.8191 67.0688C84.6417 67.1736 84.6578 67.351 84.8675 67.4719L87.4636 68.9393C87.5673 68.9982 87.6834 69.0319 87.8024 69.0375C87.9215 69.0431 88.0403 69.0205 88.149 68.9716Z" fill="#5793CE"/>
<path d="M88.2699 65.037L72.9993 73.8495C72.8138 73.9623 72.8138 74.1397 72.9993 74.2445L75.6438 75.7764C75.751 75.8268 75.868 75.8529 75.9865 75.8529C76.1049 75.8529 76.2219 75.8268 76.3291 75.7764L91.5998 66.9559L88.2699 65.037Z" fill="#5793CE"/>
<path d="M58.9299 83.952L56.5111 85.363C56.374 85.4436 56.3902 85.5887 56.5514 85.6855L57.6157 86.2982C57.7034 86.3416 57.8 86.3642 57.8979 86.3642C57.9958 86.3642 58.0923 86.3416 58.1801 86.2982L60.5989 84.8873C60.744 84.7986 60.7279 84.6535 60.5989 84.5567L59.5427 83.9439C59.4481 83.8937 59.3424 83.868 59.2353 83.8694C59.1281 83.8708 59.0231 83.8992 58.9299 83.952Z" fill="#5793CE"/>
<path d="M62.3485 81.9443L59.9297 83.3553C59.7846 83.4359 59.8007 83.5811 59.97 83.6778L61.0262 84.2906C61.114 84.3339 61.2105 84.3565 61.3084 84.3565C61.4063 84.3565 61.5028 84.3339 61.5906 84.2906L64.0094 82.8796C64.1465 82.799 64.1303 82.6458 64.0094 82.5571L62.9451 81.9443C62.8539 81.8935 62.7512 81.8668 62.6468 81.8668C62.5424 81.8668 62.4397 81.8935 62.3485 81.9443Z" fill="#5793CE"/>
<path d="M65.7428 79.9852L63.3241 81.3962C63.1789 81.4768 63.2031 81.6219 63.3241 81.7187L64.3883 82.3314C64.4755 82.3767 64.5723 82.4003 64.6705 82.4003C64.7687 82.4003 64.8655 82.3767 64.9527 82.3314L67.3715 80.9205C67.5166 80.8399 67.5005 80.6947 67.3312 80.598L66.275 79.9852C66.192 79.9452 66.101 79.9244 66.0089 79.9244C65.9168 79.9244 65.8258 79.9452 65.7428 79.9852Z" fill="#5793CE"/>
<path d="M60.478 80.864L58.0592 82.2749C57.914 82.3556 57.9382 82.5007 58.0592 82.5974L59.1234 83.2102C59.2112 83.2536 59.3077 83.2761 59.4056 83.2761C59.5035 83.2761 59.6001 83.2536 59.6878 83.2102L62.1066 81.7992C62.2518 81.7106 62.2356 81.5654 62.0663 81.4687L61.0101 80.8559C60.9261 80.8188 60.835 80.8003 60.7431 80.8017C60.6513 80.8031 60.5608 80.8243 60.478 80.864Z" fill="#5793CE"/>
<path d="M67.2909 21.7406L72.8058 18.5558L72.572 17.3706L67.0571 20.5554L67.2909 21.7406Z" fill="#D4ECFF"/>
<path d="M67.8956 24.498L73.4105 21.3133L73.1767 20.1281L67.6537 23.3128L67.8956 24.498Z" fill="white"/>
<path d="M40.8132 62.7876L46.3361 59.6028L46.1023 58.4176L40.5793 61.6023L40.8132 62.7876Z" fill="#D4ECFF"/>
<path d="M69.0889 30.021L74.6037 26.8362L74.3699 25.651L68.8551 28.8357L69.0889 30.021Z" fill="#D4ECFF"/>
<path d="M57.8818 35.8825L63.445 32.6574C63.6988 32.4909 63.8967 32.252 64.0131 31.9717C64.1295 31.6914 64.1591 31.3825 64.0981 31.0852L62.8887 25.651C62.8772 25.5263 62.8336 25.4066 62.7622 25.3037C62.6908 25.2008 62.594 25.1182 62.4812 25.0638C62.3683 25.0094 62.2433 24.9852 62.1184 24.9934C61.9934 25.0016 61.8727 25.0421 61.768 25.1108L56.2047 28.3358C55.951 28.5024 55.7531 28.7413 55.6366 29.0216C55.5202 29.3019 55.4906 29.6107 55.5517 29.9081L56.761 35.3423C56.7725 35.467 56.8161 35.5866 56.8875 35.6895C56.9589 35.7924 57.0557 35.8751 57.1686 35.9295C57.2814 35.9839 57.4064 36.0081 57.5314 35.9999C57.6563 35.9916 57.777 35.9512 57.8818 35.8825Z" fill="#FF2C9C"/>
<path d="M48.1824 41.486L53.7456 38.261C54.0052 38.0901 54.2067 37.8444 54.3233 37.5564C54.4399 37.2684 54.4662 36.9517 54.3987 36.6484L53.1893 31.2223C53.1695 31.1024 53.1199 30.9895 53.045 30.8938C52.9702 30.7981 52.8725 30.7227 52.761 30.6745C52.6495 30.6264 52.5276 30.607 52.4066 30.6182C52.2857 30.6294 52.1694 30.6707 52.0686 30.7385L46.5054 33.9636C46.2524 34.1309 46.0551 34.3699 45.9388 34.65C45.8225 34.9301 45.7923 35.2385 45.8523 35.5358L47.0617 40.97C47.0769 41.0927 47.1231 41.2094 47.196 41.3092C47.2689 41.4089 47.3661 41.4884 47.4784 41.5401C47.5906 41.5918 47.7142 41.6139 47.8374 41.6045C47.9606 41.595 48.0794 41.5542 48.1824 41.486Z" fill="#B3E0FF"/>
<path d="M60.0507 45.5335L65.6139 42.3084C65.8734 42.1376 66.0749 41.8919 66.1916 41.6039C66.3082 41.3159 66.3345 40.9992 66.267 40.6959L65.0576 35.2617C65.0446 35.1368 64.9999 35.0173 64.9275 34.9146C64.8552 34.812 64.7578 34.7296 64.6445 34.6754C64.5312 34.6212 64.4059 34.597 64.2806 34.605C64.1553 34.6131 64.0342 34.6532 63.9288 34.7215L58.3656 37.9465C58.106 38.1174 57.9046 38.3631 57.7879 38.6511C57.6713 38.9391 57.645 39.2558 57.7125 39.5591L58.9219 44.9933C58.9348 45.1182 58.9796 45.2377 59.0519 45.3403C59.1242 45.443 59.2217 45.5254 59.335 45.5796C59.4482 45.6338 59.5735 45.658 59.6988 45.6499C59.8241 45.6419 59.9453 45.6018 60.0507 45.5335Z" fill="white"/>
<path d="M50.3351 51.137L55.8984 47.9119C56.1497 47.7431 56.3458 47.5039 56.4619 47.2243C56.5781 46.9446 56.6092 46.6369 56.5514 46.3397L55.342 40.9055C55.3304 40.7799 55.2865 40.6594 55.2147 40.5557C55.1429 40.452 55.0455 40.3686 54.9321 40.3135C54.8186 40.2584 54.6928 40.2334 54.5669 40.2411C54.441 40.2488 54.3192 40.2888 54.2133 40.3572L48.65 43.5823C48.3896 43.7523 48.1875 43.9979 48.0708 44.2862C47.954 44.5744 47.9283 44.8915 47.997 45.1948L49.2064 50.621C49.2229 50.7438 49.2703 50.8604 49.3441 50.96C49.4179 51.0595 49.5157 51.1387 49.6284 51.1903C49.7412 51.2418 49.8651 51.2639 49.9887 51.2546C50.1122 51.2453 50.2314 51.2048 50.3351 51.137Z" fill="#396CAA"/>
</svg>
